<svg xmlns="http://www.w3.org/2000/svg" xmlns:xlink="http://www.w3.org/1999/xlink" xmlns:lucid="lucid" width="1370" height="983"><g transform="translate(4325 377)" lucid:page-tab-id="0_0"><path d="M-4500-500h2000v1500h-2000z" fill="#fff"/><path d="M-3960-350h300v40h-300z" stroke="#000" stroke-width="2" fill="#fff"/><use xlink:href="#a" transform="matrix(1,0,0,1,-3956,-346) translate(80.6 20.4)"/><use xlink:href="#b" transform="matrix(1,0,0,1,-3956,-346) translate(140.5 20.4)"/><path d="M-3960-310h300v157.92h-300z" stroke="#000" stroke-width="2" fill="#fff"/><use xlink:href="#c" transform="matrix(1,0,0,1,-3948,-297.99999999999994) translate(0 14.4)"/><use xlink:href="#d" transform="matrix(1,0,0,1,-3948,-297.99999999999994) translate(15.5 14.4)"/><use xlink:href="#e" transform="matrix(1,0,0,1,-3948,-297.99999999999994) translate(89.4 14.4)"/><use xlink:href="#f" transform="matrix(1,0,0,1,-3948,-297.99999999999994) translate(0 42.480000000000004)"/><use xlink:href="#g" transform="matrix(1,0,0,1,-3948,-297.99999999999994) translate(15.5 42.480000000000004)"/><use xlink:href="#e" transform="matrix(1,0,0,1,-3948,-297.99999999999994) translate(113.30000000000001 42.480000000000004)"/><use xlink:href="#f" transform="matrix(1,0,0,1,-3948,-297.99999999999994) translate(0 70.56)"/><use xlink:href="#h" transform="matrix(1,0,0,1,-3948,-297.99999999999994) translate(15.5 70.56)"/><use xlink:href="#i" transform="matrix(1,0,0,1,-3948,-297.99999999999994) translate(100.30000000000001 70.56)"/><use xlink:href="#f" transform="matrix(1,0,0,1,-3948,-297.99999999999994) translate(0 98.64000000000001)"/><use xlink:href="#j" transform="matrix(1,0,0,1,-3948,-297.99999999999994) translate(15.5 98.64000000000001)"/><use xlink:href="#k" transform="matrix(1,0,0,1,-3948,-297.99999999999994) translate(144.3 98.64000000000001)"/><use xlink:href="#f" transform="matrix(1,0,0,1,-3948,-297.99999999999994) translate(0 126.72000000000001)"/><use xlink:href="#l" transform="matrix(1,0,0,1,-3948,-297.99999999999994) translate(15.5 126.72000000000001)"/><use xlink:href="#m" transform="matrix(1,0,0,1,-3948,-297.99999999999994) translate(143.35000000000002 126.72000000000001)"/><path d="M-3960-152.08h300v125h-300z" stroke="#000" stroke-width="2" fill="#fff"/><use xlink:href="#c" transform="matrix(1,0,0,1,-3948,-140.07999999999998) translate(0 14.4)"/><use xlink:href="#n" transform="matrix(1,0,0,1,-3948,-140.07999999999998) translate(15.5 14.4)"/><use xlink:href="#f" transform="matrix(1,0,0,1,-3948,-140.07999999999998) translate(0 42.480000000000004)"/><use xlink:href="#o" transform="matrix(1,0,0,1,-3948,-140.07999999999998) translate(15.5 42.480000000000004)"/><use xlink:href="#f" transform="matrix(1,0,0,1,-3948,-140.07999999999998) translate(0 70.56)"/><use xlink:href="#p" transform="matrix(1,0,0,1,-3948,-140.07999999999998) translate(15.5 70.56)"/><use xlink:href="#f" transform="matrix(1,0,0,1,-3948,-140.07999999999998) translate(0 98.64000000000001)"/><use xlink:href="#q" transform="matrix(1,0,0,1,-3948,-140.07999999999998) translate(15.5 98.64000000000001)"/><path d="M-3810 28V4.67" stroke="#000" stroke-width="2" fill="none"/><path d="M-3809 29h-2v-1.03h2z"/><path d="M-3810-24.67l14.85 14.85L-3810 5.33l-14.85-15.15z" stroke="#000" stroke-width="2"/><path d="M-4300-350h300v40h-300z" stroke="#000" stroke-width="2" fill="#fff"/><use xlink:href="#r" transform="matrix(1,0,0,1,-4296,-346) translate(89.1 20.4)"/><use xlink:href="#b" transform="matrix(1,0,0,1,-4296,-346) translate(132 20.4)"/><path d="M-4300-310h300v129.84h-300z" stroke="#000" stroke-width="2" fill="#fff"/><use xlink:href="#c" transform="matrix(1,0,0,1,-4288,-298) translate(0 14.4)"/><use xlink:href="#s" transform="matrix(1,0,0,1,-4288,-298) translate(15.5 14.4)"/><use xlink:href="#e" transform="matrix(1,0,0,1,-4288,-298) translate(72.4 14.4)"/><use xlink:href="#f" transform="matrix(1,0,0,1,-4288,-298) translate(0 42.480000000000004)"/><use xlink:href="#t" transform="matrix(1,0,0,1,-4288,-298) translate(15.5 42.480000000000004)"/><use xlink:href="#u" transform="matrix(1,0,0,1,-4288,-298) translate(101.45 42.480000000000004)"/><use xlink:href="#f" transform="matrix(1,0,0,1,-4288,-298) translate(0 70.56)"/><use xlink:href="#h" transform="matrix(1,0,0,1,-4288,-298) translate(15.5 70.56)"/><use xlink:href="#i" transform="matrix(1,0,0,1,-4288,-298) translate(100.30000000000001 70.56)"/><use xlink:href="#f" transform="matrix(1,0,0,1,-4288,-298) translate(0 98.64000000000001)"/><use xlink:href="#l" transform="matrix(1,0,0,1,-4288,-298) translate(15.5 98.64000000000001)"/><use xlink:href="#m" transform="matrix(1,0,0,1,-4288,-298) translate(143.35000000000002 98.64000000000001)"/><path d="M-4300-180.16h300v95h-300z" stroke="#000" stroke-width="2" fill="#fff"/><use xlink:href="#c" transform="matrix(1,0,0,1,-4288,-168.15999999999997) translate(0 14.4)"/><use xlink:href="#v" transform="matrix(1,0,0,1,-4288,-168.15999999999997) translate(15.5 14.4)"/><use xlink:href="#f" transform="matrix(1,0,0,1,-4288,-168.15999999999997) translate(0 42.480000000000004)"/><use xlink:href="#p" transform="matrix(1,0,0,1,-4288,-168.15999999999997) translate(15.5 42.480000000000004)"/><use xlink:href="#f" transform="matrix(1,0,0,1,-4288,-168.15999999999997) translate(0 70.56)"/><use xlink:href="#q" transform="matrix(1,0,0,1,-4288,-168.15999999999997) translate(15.5 70.56)"/><path d="M-4150-29.08V-53.4" stroke="#000" stroke-width="2" fill="none"/><path d="M-4149-28.08h-2v-1.03h2z"/><path d="M-4150-82.75l14.85 14.85-14.85 15.15-14.85-15.15z" stroke="#000" stroke-width="2"/><path d="M-3130 223v-24.8" stroke="#000" stroke-width="2" fill="none"/><path d="M-3129 224h-2v-1.03h2z"/><path d="M-3130 168.87l14.85 14.85-14.85 15.15-14.85-15.15z" stroke="#000" stroke-width="2"/><path d="M-3280 225h300v40h-300z" stroke="#000" stroke-width="2" fill="#fff"/><g><use xlink:href="#w" transform="matrix(1,0,0,1,-3276,229) translate(127.525 20.4)"/></g><path d="M-3280 265h300v242.16h-300z" stroke="#000" stroke-width="2" fill="#fff"/><g><use xlink:href="#c" transform="matrix(1,0,0,1,-3268,277.0000000000001) translate(0 14.4)"/><use xlink:href="#x" transform="matrix(1,0,0,1,-3268,277.0000000000001) translate(15.5 14.4)"/><use xlink:href="#y" transform="matrix(1,0,0,1,-3268,277.0000000000001) translate(85.35000000000001 14.4)"/><use xlink:href="#f" transform="matrix(1,0,0,1,-3268,277.0000000000001) translate(0 42.480000000000004)"/><use xlink:href="#z" transform="matrix(1,0,0,1,-3268,277.0000000000001) translate(15.5 42.480000000000004)"/><use xlink:href="#y" transform="matrix(1,0,0,1,-3268,277.0000000000001) translate(97.25000000000001 42.480000000000004)"/><use xlink:href="#f" transform="matrix(1,0,0,1,-3268,277.0000000000001) translate(0 70.56)"/><use xlink:href="#A" transform="matrix(1,0,0,1,-3268,277.0000000000001) translate(15.5 70.56)"/><use xlink:href="#y" transform="matrix(1,0,0,1,-3268,277.0000000000001) translate(80.4 70.56)"/><use xlink:href="#f" transform="matrix(1,0,0,1,-3268,277.0000000000001) translate(0 98.64000000000001)"/><use xlink:href="#B" transform="matrix(1,0,0,1,-3268,277.0000000000001) translate(15.5 98.64000000000001)"/><use xlink:href="#i" transform="matrix(1,0,0,1,-3268,277.0000000000001) translate(83.5 98.64000000000001)"/><use xlink:href="#f" transform="matrix(1,0,0,1,-3268,277.0000000000001) translate(0 126.72000000000001)"/><use xlink:href="#C" transform="matrix(1,0,0,1,-3268,277.0000000000001) translate(15.5 126.72000000000001)"/><use xlink:href="#D" transform="matrix(1,0,0,1,-3268,277.0000000000001) translate(112.4 126.72000000000001)"/><use xlink:href="#f" transform="matrix(1,0,0,1,-3268,277.0000000000001) translate(0 154.8)"/><use xlink:href="#E" transform="matrix(1,0,0,1,-3268,277.0000000000001) translate(15.5 154.8)"/><use xlink:href="#D" transform="matrix(1,0,0,1,-3268,277.0000000000001) translate(87.35000000000001 154.8)"/><use xlink:href="#f" transform="matrix(1,0,0,1,-3268,277.0000000000001) translate(0 182.88000000000002)"/><use xlink:href="#F" transform="matrix(1,0,0,1,-3268,277.0000000000001) translate(15.5 182.88000000000002)"/><use xlink:href="#G" transform="matrix(1,0,0,1,-3268,277.0000000000001) translate(151.4 182.88000000000002)"/><use xlink:href="#f" transform="matrix(1,0,0,1,-3268,277.0000000000001) translate(0 210.96000000000004)"/><use xlink:href="#H" transform="matrix(1,0,0,1,-3268,277.0000000000001) translate(15.5 210.96000000000004)"/><use xlink:href="#I" transform="matrix(1,0,0,1,-3268,277.0000000000001) translate(85.4 210.96000000000004)"/></g><path d="M-3280 507.16h300v73.68h-300z" stroke="#000" stroke-width="2" fill="#fff"/><g><use xlink:href="#c" transform="matrix(1,0,0,1,-3268,519.16) translate(0 14.4)"/><use xlink:href="#J" transform="matrix(1,0,0,1,-3268,519.16) translate(15.5 14.4)"/><use xlink:href="#f" transform="matrix(1,0,0,1,-3268,519.16) translate(0 42.480000000000004)"/><use xlink:href="#K" transform="matrix(1,0,0,1,-3268,519.16) translate(15.5 42.480000000000004)"/></g><path d="M-3960 30h300v40h-300z" stroke="#000" stroke-width="2" fill="#fff"/><g><use xlink:href="#L" transform="matrix(1,0,0,1,-3956,34) translate(118.55 20.4)"/></g><path d="M-3960 70h300v155h-300z" stroke="#000" stroke-width="2" fill="#fff"/><g><use xlink:href="#c" transform="matrix(1,0,0,1,-3948,82) translate(0 14.4)"/><use xlink:href="#M" transform="matrix(1,0,0,1,-3948,82) translate(15.5 14.4)"/><use xlink:href="#y" transform="matrix(1,0,0,1,-3948,82) translate(78.4 14.4)"/><use xlink:href="#f" transform="matrix(1,0,0,1,-3948,82) translate(0 42.480000000000004)"/><use xlink:href="#N" transform="matrix(1,0,0,1,-3948,82) translate(15.5 42.480000000000004)"/><use xlink:href="#G" transform="matrix(1,0,0,1,-3948,82) translate(73.4 42.480000000000004)"/><use xlink:href="#f" transform="matrix(1,0,0,1,-3948,82) translate(0 70.56)"/><use xlink:href="#O" transform="matrix(1,0,0,1,-3948,82) translate(15.5 70.56)"/><use xlink:href="#P" transform="matrix(1,0,0,1,-3948,82) translate(89.45 70.56)"/><use xlink:href="#f" transform="matrix(1,0,0,1,-3948,82) translate(0 98.64000000000001)"/><use xlink:href="#Q" transform="matrix(1,0,0,1,-3948,82) translate(15.5 98.64000000000001)"/><use xlink:href="#R" transform="matrix(1,0,0,1,-3948,82) translate(119.4 98.64000000000001)"/><use xlink:href="#f" transform="matrix(1,0,0,1,-3948,82) translate(0 126.72000000000001)"/><use xlink:href="#l" transform="matrix(1,0,0,1,-3948,82) translate(15.5 126.72000000000001)"/><use xlink:href="#m" transform="matrix(1,0,0,1,-3948,82) translate(143.35000000000002 126.72000000000001)"/></g><path d="M-3960 225h300v70h-300z" stroke="#000" stroke-width="2" fill="#fff"/><g><use xlink:href="#c" transform="matrix(1,0,0,1,-3948,237) translate(0 14.4)"/><use xlink:href="#S" transform="matrix(1,0,0,1,-3948,237) translate(15.5 14.4)"/><use xlink:href="#f" transform="matrix(1,0,0,1,-3948,237) translate(0 42.480000000000004)"/><use xlink:href="#T" transform="matrix(1,0,0,1,-3948,237) translate(15.5 42.480000000000004)"/></g><path d="M-3620-350h300v40h-300z" stroke="#000" stroke-width="2" fill="#fff"/><g><use xlink:href="#U" transform="matrix(1,0,0,1,-3616,-346) translate(86.57499999999999 20.4)"/></g><path d="M-3620-310h300v129.84h-300z" stroke="#000" stroke-width="2" fill="#fff"/><g><use xlink:href="#c" transform="matrix(1,0,0,1,-3608,-298) translate(0 14.4)"/><use xlink:href="#V" transform="matrix(1,0,0,1,-3608,-298) translate(15.5 14.4)"/><use xlink:href="#e" transform="matrix(1,0,0,1,-3608,-298) translate(82.45 14.4)"/><use xlink:href="#f" transform="matrix(1,0,0,1,-3608,-298) translate(0 42.480000000000004)"/><use xlink:href="#W" transform="matrix(1,0,0,1,-3608,-298) translate(15.5 42.480000000000004)"/><use xlink:href="#X" transform="matrix(1,0,0,1,-3608,-298) translate(66.4 42.480000000000004)"/><use xlink:href="#f" transform="matrix(1,0,0,1,-3608,-298) translate(0 70.56)"/><use xlink:href="#h" transform="matrix(1,0,0,1,-3608,-298) translate(15.5 70.56)"/><use xlink:href="#i" transform="matrix(1,0,0,1,-3608,-298) translate(100.30000000000001 70.56)"/><use xlink:href="#f" transform="matrix(1,0,0,1,-3608,-298) translate(0 98.64000000000001)"/><use xlink:href="#l" transform="matrix(1,0,0,1,-3608,-298) translate(15.5 98.64000000000001)"/><use xlink:href="#m" transform="matrix(1,0,0,1,-3608,-298) translate(143.35000000000002 98.64000000000001)"/></g><path d="M-3620-180.16h300v157.92h-300z" stroke="#000" stroke-width="2" fill="#fff"/><g><use xlink:href="#c" transform="matrix(1,0,0,1,-3608,-168.15999999999997) translate(0 14.4)"/><use xlink:href="#Y" transform="matrix(1,0,0,1,-3608,-168.15999999999997) translate(15.5 14.4)"/><use xlink:href="#f" transform="matrix(1,0,0,1,-3608,-168.15999999999997) translate(0 42.480000000000004)"/><use xlink:href="#Z" transform="matrix(1,0,0,1,-3608,-168.15999999999997) translate(15.5 42.480000000000004)"/><use xlink:href="#f" transform="matrix(1,0,0,1,-3608,-168.15999999999997) translate(0 70.56)"/><use xlink:href="#aa" transform="matrix(1,0,0,1,-3608,-168.15999999999997) translate(15.5 70.56)"/><use xlink:href="#f" transform="matrix(1,0,0,1,-3608,-168.15999999999997) translate(0 98.64000000000001)"/><use xlink:href="#ab" transform="matrix(1,0,0,1,-3608,-168.15999999999997) translate(15.5 98.64000000000001)"/><use xlink:href="#f" transform="matrix(1,0,0,1,-3608,-168.15999999999997) translate(0 126.72000000000001)"/><use xlink:href="#q" transform="matrix(1,0,0,1,-3608,-168.15999999999997) translate(15.5 126.72000000000001)"/></g><path d="M-4300-27.08h300v40h-300z" stroke="#000" stroke-width="2" fill="#fff"/><g><use xlink:href="#ac" transform="matrix(1,0,0,1,-4296,-23.079999999999984) translate(127.05 20.4)"/></g><path d="M-4300 12.92h300V110h-300z" stroke="#000" stroke-width="2" fill="#fff"/><g><use xlink:href="#c" transform="matrix(1,0,0,1,-4288,24.920000000000073) translate(0 14.4)"/><use xlink:href="#C" transform="matrix(1,0,0,1,-4288,24.920000000000073) translate(15.5 14.4)"/><use xlink:href="#D" transform="matrix(1,0,0,1,-4288,24.920000000000073) translate(112.4 14.4)"/><use xlink:href="#f" transform="matrix(1,0,0,1,-4288,24.920000000000073) translate(0 42.480000000000004)"/><use xlink:href="#ad" transform="matrix(1,0,0,1,-4288,24.920000000000073) translate(15.5 42.480000000000004)"/><use xlink:href="#P" transform="matrix(1,0,0,1,-4288,24.920000000000073) translate(85.4 42.480000000000004)"/><use xlink:href="#f" transform="matrix(1,0,0,1,-4288,24.920000000000073) translate(0 70.56)"/><use xlink:href="#l" transform="matrix(1,0,0,1,-4288,24.920000000000073) translate(15.5 70.56)"/><use xlink:href="#m" transform="matrix(1,0,0,1,-4288,24.920000000000073) translate(143.35000000000002 70.56)"/></g><path d="M-4300 110h300v70h-300z" stroke="#000" stroke-width="2" fill="#fff"/><g><use xlink:href="#c" transform="matrix(1,0,0,1,-4288,122) translate(0 14.4)"/><use xlink:href="#ae" transform="matrix(1,0,0,1,-4288,122) translate(15.5 14.4)"/><use xlink:href="#f" transform="matrix(1,0,0,1,-4288,122) translate(0 42.480000000000004)"/><use xlink:href="#af" transform="matrix(1,0,0,1,-4288,122) translate(15.5 42.480000000000004)"/></g><path d="M-3280-350h300v39.08h-300z" stroke="#000" stroke-width="2" fill="#fff"/><g><use xlink:href="#ag" transform="matrix(1,0,0,1,-3276,-346) translate(89.57499999999999 20.4)"/><use xlink:href="#b" transform="matrix(1,0,0,1,-3276,-346) translate(131.52499999999998 20.4)"/></g><path d="M-3280-310.92h300V-40h-300z" stroke="#000" stroke-width="2" fill="#fff"/><g><use xlink:href="#c" transform="matrix(1,0,0,1,-3268,-298.9161970550809) translate(0 14.4)"/><use xlink:href="#ah" transform="matrix(1,0,0,1,-3268,-298.9161970550809) translate(15.5 14.4)"/><use xlink:href="#e" transform="matrix(1,0,0,1,-3268,-298.9161970550809) translate(71.45 14.4)"/><use xlink:href="#f" transform="matrix(1,0,0,1,-3268,-298.9161970550809) translate(0 42.480000000000004)"/><use xlink:href="#ai" transform="matrix(1,0,0,1,-3268,-298.9161970550809) translate(15.5 42.480000000000004)"/><use xlink:href="#P" transform="matrix(1,0,0,1,-3268,-298.9161970550809) translate(69.5 42.480000000000004)"/><use xlink:href="#f" transform="matrix(1,0,0,1,-3268,-298.9161970550809) translate(0 70.56)"/><use xlink:href="#ad" transform="matrix(1,0,0,1,-3268,-298.9161970550809) translate(15.5 70.56)"/><use xlink:href="#e" transform="matrix(1,0,0,1,-3268,-298.9161970550809) translate(85.4 70.56)"/><use xlink:href="#f" transform="matrix(1,0,0,1,-3268,-298.9161970550809) translate(0 98.64000000000001)"/><use xlink:href="#aj" transform="matrix(1,0,0,1,-3268,-298.9161970550809) translate(15.5 98.64000000000001)"/><use xlink:href="#ak" transform="matrix(1,0,0,1,-3268,-298.9161970550809) translate(76.4 98.64000000000001)"/><use xlink:href="#f" transform="matrix(1,0,0,1,-3268,-298.9161970550809) translate(0 126.72000000000001)"/><use xlink:href="#al" transform="matrix(1,0,0,1,-3268,-298.9161970550809) translate(15.5 126.72000000000001)"/><use xlink:href="#D" transform="matrix(1,0,0,1,-3268,-298.9161970550809) translate(56.45 126.72000000000001)"/><use xlink:href="#f" transform="matrix(1,0,0,1,-3268,-298.9161970550809) translate(0 154.8)"/><use xlink:href="#h" transform="matrix(1,0,0,1,-3268,-298.9161970550809) translate(15.5 154.8)"/><use xlink:href="#i" transform="matrix(1,0,0,1,-3268,-298.9161970550809) translate(100.30000000000001 154.8)"/><use xlink:href="#f" transform="matrix(1,0,0,1,-3268,-298.9161970550809) translate(0 182.88000000000002)"/><use xlink:href="#j" transform="matrix(1,0,0,1,-3268,-298.9161970550809) translate(15.5 182.88000000000002)"/><use xlink:href="#k" transform="matrix(1,0,0,1,-3268,-298.9161970550809) translate(144.3 182.88000000000002)"/><use xlink:href="#f" transform="matrix(1,0,0,1,-3268,-298.9161970550809) translate(0 210.96000000000004)"/><use xlink:href="#am" transform="matrix(1,0,0,1,-3268,-298.9161970550809) translate(15.5 210.96000000000004)"/><use xlink:href="#k" transform="matrix(1,0,0,1,-3268,-298.9161970550809) translate(161.3 210.96000000000004)"/><use xlink:href="#f" transform="matrix(1,0,0,1,-3268,-298.9161970550809) translate(0 239.04000000000005)"/><use xlink:href="#an" transform="matrix(1,0,0,1,-3268,-298.9161970550809) translate(15.5 239.04000000000005)"/><use xlink:href="#ao" transform="matrix(1,0,0,1,-3268,-298.9161970550809) translate(154.35 239.04000000000005)"/></g><path d="M-3280-43.54h300v210h-300z" stroke="#000" stroke-width="2" fill="#fff"/><g><use xlink:href="#c" transform="matrix(1,0,0,1,-3268,-31.539999999999964) translate(0 14.4)"/><use xlink:href="#ap" transform="matrix(1,0,0,1,-3268,-31.539999999999964) translate(15.5 14.4)"/><use xlink:href="#f" transform="matrix(1,0,0,1,-3268,-31.539999999999964) translate(0 42.480000000000004)"/><use xlink:href="#aq" transform="matrix(1,0,0,1,-3268,-31.539999999999964) translate(15.5 42.480000000000004)"/><use xlink:href="#c" transform="matrix(1,0,0,1,-3268,-31.539999999999964) translate(0 70.56)"/><use xlink:href="#p" transform="matrix(1,0,0,1,-3268,-31.539999999999964) translate(15.5 70.56)"/><use xlink:href="#f" transform="matrix(1,0,0,1,-3268,-31.539999999999964) translate(0 98.64000000000001)"/><use xlink:href="#ar" transform="matrix(1,0,0,1,-3268,-31.539999999999964) translate(15.5 98.64000000000001)"/><use xlink:href="#f" transform="matrix(1,0,0,1,-3268,-31.539999999999964) translate(0 126.72000000000001)"/><use xlink:href="#as" transform="matrix(1,0,0,1,-3268,-31.539999999999964) translate(15.5 126.72000000000001)"/><use xlink:href="#f" transform="matrix(1,0,0,1,-3268,-31.539999999999964) translate(0 154.8)"/><use xlink:href="#at" transform="matrix(1,0,0,1,-3268,-31.539999999999964) translate(15.5 154.8)"/><use xlink:href="#f" transform="matrix(1,0,0,1,-3268,-31.539999999999964) translate(0 182.88000000000002)"/><use xlink:href="#q" transform="matrix(1,0,0,1,-3268,-31.539999999999964) translate(15.5 182.88000000000002)"/></g><defs><path d="M30-248c118-7 216 8 213 122C240-48 200 0 122 0H30v-248zM63-27c89 8 146-16 146-99s-60-101-146-95v194" id="au"/><path d="M100-194c63 0 86 42 84 106H49c0 40 14 67 53 68 26 1 43-12 49-29l28 8c-11 28-37 45-77 45C44 4 14-33 15-96c1-61 26-98 85-98zm52 81c6-60-76-77-97-28-3 7-6 17-6 28h103" id="av"/><path d="M108 0H70L1-190h34L89-25l56-165h34" id="aw"/><path d="M24-231v-30h32v30H24zM24 0v-190h32V0H24" id="ax"/><path d="M96-169c-40 0-48 33-48 73s9 75 48 75c24 0 41-14 43-38l32 2c-6 37-31 61-74 61-59 0-76-41-82-99-10-93 101-131 147-64 4 7 5 14 7 22l-32 3c-4-21-16-35-41-35" id="ay"/><g id="a"><use transform="matrix(0.05,0,0,0.05,0,0)" xlink:href="#au"/><use transform="matrix(0.05,0,0,0.05,12.950000000000001,0)" xlink:href="#av"/><use transform="matrix(0.05,0,0,0.05,22.950000000000003,0)" xlink:href="#aw"/><use transform="matrix(0.05,0,0,0.05,31.950000000000003,0)" xlink:href="#ax"/><use transform="matrix(0.05,0,0,0.05,35.900000000000006,0)" xlink:href="#ay"/><use transform="matrix(0.05,0,0,0.05,44.900000000000006,0)" xlink:href="#av"/></g><path d="M240 0l2-218c-23 76-54 145-80 218h-23L58-218 59 0H30v-248h44l77 211c21-75 51-140 76-211h43V0h-30" id="az"/><path d="M141-36C126-15 110 5 73 4 37 3 15-17 15-53c-1-64 63-63 125-63 3-35-9-54-41-54-24 1-41 7-42 31l-33-3c5-37 33-52 76-52 45 0 72 20 72 64v82c-1 20 7 32 28 27v20c-31 9-61-2-59-35zM48-53c0 20 12 33 32 33 41-3 63-29 60-74-43 2-92-5-92 41" id="aA"/><path d="M117-194c89-4 53 116 60 194h-32v-121c0-31-8-49-39-48C34-167 62-67 57 0H25l-1-190h30c1 10-1 24 2 32 11-22 29-35 61-36" id="aB"/><path d="M177-190C167-65 218 103 67 71c-23-6-38-20-44-43l32-5c15 47 100 32 89-28v-30C133-14 115 1 83 1 29 1 15-40 15-95c0-56 16-97 71-98 29-1 48 16 59 35 1-10 0-23 2-32h30zM94-22c36 0 50-32 50-73 0-42-14-75-50-75-39 0-46 34-46 75s6 73 46 73" id="aC"/><path d="M114-163C36-179 61-72 57 0H25l-1-190h30c1 12-1 29 2 39 6-27 23-49 58-41v29" id="aD"/><g id="b"><use transform="matrix(0.05,0,0,0.05,0,0)" xlink:href="#az"/><use transform="matrix(0.05,0,0,0.05,14.950000000000001,0)" xlink:href="#aA"/><use transform="matrix(0.05,0,0,0.05,24.950000000000003,0)" xlink:href="#aB"/><use transform="matrix(0.05,0,0,0.05,34.95,0)" xlink:href="#aA"/><use transform="matrix(0.05,0,0,0.05,44.95,0)" xlink:href="#aC"/><use transform="matrix(0.05,0,0,0.05,54.95,0)" xlink:href="#av"/><use transform="matrix(0.05,0,0,0.05,64.95,0)" xlink:href="#aD"/></g><path d="M118-107v75H92v-75H18v-26h74v-75h26v75h74v26h-74" id="aE"/><use transform="matrix(0.05,0,0,0.05,0,0)" xlink:href="#aE" id="c"/><path d="M135-143c-3-34-86-38-87 0 15 53 115 12 119 90S17 21 10-45l28-5c4 36 97 45 98 0-10-56-113-15-118-90-4-57 82-63 122-42 12 7 21 19 24 35" id="aF"/><path d="M33-154v-36h34v36H33zM33 0v-36h34V0H33" id="aG"/><g id="d"><use transform="matrix(0.05,0,0,0.05,0,0)" xlink:href="#au"/><use transform="matrix(0.05,0,0,0.05,12.950000000000001,0)" xlink:href="#av"/><use transform="matrix(0.05,0,0,0.05,22.950000000000003,0)" xlink:href="#aw"/><use transform="matrix(0.05,0,0,0.05,31.950000000000003,0)" xlink:href="#ax"/><use transform="matrix(0.05,0,0,0.05,35.900000000000006,0)" xlink:href="#ay"/><use transform="matrix(0.05,0,0,0.05,44.900000000000006,0)" xlink:href="#av"/><use transform="matrix(0.05,0,0,0.05,54.900000000000006,0)" xlink:href="#aF"/><use transform="matrix(0.05,0,0,0.05,63.900000000000006,0)" xlink:href="#aG"/></g><path d="M115-194c55 1 70 41 70 98S169 2 115 4C84 4 66-9 55-30l1 105H24l-1-265h31l2 30c10-21 28-34 59-34zm-8 174c40 0 45-34 45-75s-6-73-45-74c-42 0-51 32-51 76 0 43 10 73 51 73" id="aH"/><g id="e"><use transform="matrix(0.05,0,0,0.05,0,0)" xlink:href="#az"/><use transform="matrix(0.05,0,0,0.05,14.950000000000001,0)" xlink:href="#aA"/><use transform="matrix(0.05,0,0,0.05,24.950000000000003,0)" xlink:href="#aH"/></g><use transform="matrix(0.05,0,0,0.05,0,0)" xlink:href="#aE" id="f"/><path d="M212-179c-10-28-35-45-73-45-59 0-87 40-87 99 0 60 29 101 89 101 43 0 62-24 78-52l27 14C228-24 195 4 139 4 59 4 22-46 18-125c-6-104 99-153 187-111 19 9 31 26 39 46" id="aI"/><path d="M100-194c62-1 85 37 85 99 1 63-27 99-86 99S16-35 15-95c0-66 28-99 85-99zM99-20c44 1 53-31 53-75 0-43-8-75-51-75s-53 32-53 75 10 74 51 75" id="aJ"/><path d="M24 0v-261h32V0H24" id="aK"/><path d="M59-47c-2 24 18 29 38 22v24C64 9 27 4 27-40v-127H5v-23h24l9-43h21v43h35v23H59v120" id="aL"/><g id="g"><use transform="matrix(0.05,0,0,0.05,0,0)" xlink:href="#aI"/><use transform="matrix(0.05,0,0,0.05,12.950000000000001,0)" xlink:href="#aJ"/><use transform="matrix(0.05,0,0,0.05,22.950000000000003,0)" xlink:href="#aK"/><use transform="matrix(0.05,0,0,0.05,26.900000000000002,0)" xlink:href="#aK"/><use transform="matrix(0.05,0,0,0.05,30.85,0)" xlink:href="#av"/><use transform="matrix(0.05,0,0,0.05,40.85,0)" xlink:href="#ay"/><use transform="matrix(0.05,0,0,0.05,49.85,0)" xlink:href="#aL"/><use transform="matrix(0.05,0,0,0.05,54.85,0)" xlink:href="#ax"/><use transform="matrix(0.05,0,0,0.05,58.800000000000004,0)" xlink:href="#aJ"/><use transform="matrix(0.05,0,0,0.05,68.80000000000001,0)" xlink:href="#aB"/><use transform="matrix(0.05,0,0,0.05,78.80000000000001,0)" xlink:href="#aF"/><use transform="matrix(0.05,0,0,0.05,87.80000000000001,0)" xlink:href="#aG"/></g><path d="M33 0v-248h34V0H33" id="aM"/><path d="M9 0v-24l116-142H16v-24h144v24L44-24h123V0H9" id="aN"/><path d="M85-194c31 0 48 13 60 33l-1-100h32l1 261h-30c-2-10 0-23-3-31C134-8 116 4 85 4 32 4 16-35 15-94c0-66 23-100 70-100zm9 24c-40 0-46 34-46 75 0 40 6 74 45 74 42 0 51-32 51-76 0-42-9-74-50-73" id="aO"/><g id="h"><use transform="matrix(0.05,0,0,0.05,0,0)" xlink:href="#aM"/><use transform="matrix(0.05,0,0,0.05,5,0)" xlink:href="#aB"/><use transform="matrix(0.05,0,0,0.05,15,0)" xlink:href="#ax"/><use transform="matrix(0.05,0,0,0.05,18.95,0)" xlink:href="#aL"/><use transform="matrix(0.05,0,0,0.05,23.95,0)" xlink:href="#ax"/><use transform="matrix(0.05,0,0,0.05,27.899999999999995,0)" xlink:href="#aA"/><use transform="matrix(0.05,0,0,0.05,37.9,0)" xlink:href="#aK"/><use transform="matrix(0.05,0,0,0.05,41.85,0)" xlink:href="#ax"/><use transform="matrix(0.05,0,0,0.05,45.800000000000004,0)" xlink:href="#aN"/><use transform="matrix(0.05,0,0,0.05,54.800000000000004,0)" xlink:href="#av"/><use transform="matrix(0.05,0,0,0.05,64.80000000000001,0)" xlink:href="#aO"/><use transform="matrix(0.05,0,0,0.05,74.80000000000001,0)" xlink:href="#aG"/></g><path d="M160-131c35 5 61 23 61 61C221 17 115-2 30 0v-248c76 3 177-17 177 60 0 33-19 50-47 57zm-97-11c50-1 110 9 110-42 0-47-63-36-110-37v79zm0 115c55-2 124 14 124-45 0-56-70-42-124-44v89" id="aP"/><g id="i"><use transform="matrix(0.05,0,0,0.05,0,0)" xlink:href="#aP"/><use transform="matrix(0.05,0,0,0.05,12,0)" xlink:href="#aJ"/><use transform="matrix(0.05,0,0,0.05,22,0)" xlink:href="#aJ"/><use transform="matrix(0.05,0,0,0.05,32,0)" xlink:href="#aK"/></g><path d="M232-93c-1 65-40 97-104 97C67 4 28-28 28-90v-158h33c8 89-33 224 67 224 102 0 64-133 71-224h33v155" id="aQ"/><path d="M-5 72V49h209v23H-5" id="aR"/><g id="j"><use transform="matrix(0.05,0,0,0.05,0,0)" xlink:href="#aQ"/><use transform="matrix(0.05,0,0,0.05,12.950000000000001,0)" xlink:href="#aF"/><use transform="matrix(0.05,0,0,0.05,21.950000000000003,0)" xlink:href="#av"/><use transform="matrix(0.05,0,0,0.05,31.950000000000003,0)" xlink:href="#aD"/><use transform="matrix(0.05,0,0,0.05,37.900000000000006,0)" xlink:href="#aR"/><use transform="matrix(0.05,0,0,0.05,47.900000000000006,0)" xlink:href="#az"/><use transform="matrix(0.05,0,0,0.05,62.85,0)" xlink:href="#aA"/><use transform="matrix(0.05,0,0,0.05,72.85000000000001,0)" xlink:href="#aB"/><use transform="matrix(0.05,0,0,0.05,82.85000000000001,0)" xlink:href="#aA"/><use transform="matrix(0.05,0,0,0.05,92.85000000000001,0)" xlink:href="#aC"/><use transform="matrix(0.05,0,0,0.05,102.85000000000001,0)" xlink:href="#av"/><use transform="matrix(0.05,0,0,0.05,112.85000000000001,0)" xlink:href="#aD"/><use transform="matrix(0.05,0,0,0.05,118.80000000000001,0)" xlink:href="#aG"/></g><path d="M101-234c-31-9-42 10-38 44h38v23H63V0H32v-167H5v-23h27c-7-52 17-82 69-68v24" id="aS"/><g id="k"><use transform="matrix(0.05,0,0,0.05,0,0)" xlink:href="#aM"/><use transform="matrix(0.05,0,0,0.05,5,0)" xlink:href="#aB"/><use transform="matrix(0.05,0,0,0.05,15,0)" xlink:href="#aL"/><use transform="matrix(0.05,0,0,0.05,20,0)" xlink:href="#av"/><use transform="matrix(0.05,0,0,0.05,30,0)" xlink:href="#aD"/><use transform="matrix(0.05,0,0,0.05,35.95,0)" xlink:href="#aS"/><use transform="matrix(0.05,0,0,0.05,40.95,0)" xlink:href="#aA"/><use transform="matrix(0.05,0,0,0.05,50.95,0)" xlink:href="#ay"/><use transform="matrix(0.05,0,0,0.05,59.95,0)" xlink:href="#av"/></g><path d="M127-220V0H93v-220H8v-28h204v28h-85" id="aT"/><path d="M143 0L79-87 56-68V0H24v-261h32v163l83-92h37l-77 82L181 0h-38" id="aU"/><g id="l"><use transform="matrix(0.05,0,0,0.05,0,0)" xlink:href="#aT"/><use transform="matrix(0.05,0,0,0.05,8.950000000000001,0)" xlink:href="#aA"/><use transform="matrix(0.05,0,0,0.05,18.950000000000003,0)" xlink:href="#aF"/><use transform="matrix(0.05,0,0,0.05,27.950000000000003,0)" xlink:href="#aU"/><use transform="matrix(0.05,0,0,0.05,36.95,0)" xlink:href="#aR"/><use transform="matrix(0.05,0,0,0.05,46.95,0)" xlink:href="#az"/><use transform="matrix(0.05,0,0,0.05,61.900000000000006,0)" xlink:href="#aA"/><use transform="matrix(0.05,0,0,0.05,71.9,0)" xlink:href="#aB"/><use transform="matrix(0.05,0,0,0.05,81.9,0)" xlink:href="#aA"/><use transform="matrix(0.05,0,0,0.05,91.9,0)" xlink:href="#aC"/><use transform="matrix(0.05,0,0,0.05,101.9,0)" xlink:href="#av"/><use transform="matrix(0.05,0,0,0.05,111.9,0)" xlink:href="#aD"/><use transform="matrix(0.05,0,0,0.05,117.85000000000001,0)" xlink:href="#aG"/></g><path d="M205 0l-28-72H64L36 0H1l101-248h38L239 0h-34zm-38-99l-47-123c-12 45-31 82-46 123h93" id="aV"/><g id="m"><use transform="matrix(0.05,0,0,0.05,0,0)" xlink:href="#aV"/><use transform="matrix(0.05,0,0,0.05,12,0)" xlink:href="#aO"/><use transform="matrix(0.05,0,0,0.05,22,0)" xlink:href="#aO"/><use transform="matrix(0.05,0,0,0.05,32,0)" xlink:href="#aD"/><use transform="matrix(0.05,0,0,0.05,37.95,0)" xlink:href="#av"/><use transform="matrix(0.05,0,0,0.05,47.95,0)" xlink:href="#aF"/><use transform="matrix(0.05,0,0,0.05,56.95,0)" xlink:href="#aF"/></g><path d="M63-220v92h138v28H63V0H30v-248h175v28H63" id="aW"/><path d="M106-169C34-169 62-67 57 0H25v-261h32l-1 103c12-21 28-36 61-36 89 0 53 116 60 194h-32v-121c2-32-8-49-39-48" id="aX"/><path d="M87 75C49 33 22-17 22-94c0-76 28-126 65-167h31c-38 41-64 92-64 168S80 34 118 75H87" id="aY"/><path d="M33-261c38 41 65 92 65 168S71 34 33 75H2C39 34 66-17 66-93S39-220 2-261h31" id="aZ"/><g id="n"><use transform="matrix(0.05,0,0,0.05,0,0)" xlink:href="#aW"/><use transform="matrix(0.05,0,0,0.05,10.950000000000001,0)" xlink:href="#av"/><use transform="matrix(0.05,0,0,0.05,20.950000000000003,0)" xlink:href="#aL"/><use transform="matrix(0.05,0,0,0.05,25.950000000000003,0)" xlink:href="#ay"/><use transform="matrix(0.05,0,0,0.05,34.95,0)" xlink:href="#aX"/><use transform="matrix(0.05,0,0,0.05,44.95,0)" xlink:href="#aR"/><use transform="matrix(0.05,0,0,0.05,54.95,0)" xlink:href="#au"/><use transform="matrix(0.05,0,0,0.05,67.9,0)" xlink:href="#av"/><use transform="matrix(0.05,0,0,0.05,77.9,0)" xlink:href="#aw"/><use transform="matrix(0.05,0,0,0.05,86.9,0)" xlink:href="#ax"/><use transform="matrix(0.05,0,0,0.05,90.85000000000001,0)" xlink:href="#ay"/><use transform="matrix(0.05,0,0,0.05,99.85000000000001,0)" xlink:href="#av"/><use transform="matrix(0.05,0,0,0.05,109.85000000000001,0)" xlink:href="#aY"/><use transform="matrix(0.05,0,0,0.05,115.80000000000001,0)" xlink:href="#aZ"/></g><g id="o"><use transform="matrix(0.05,0,0,0.05,0,0)" xlink:href="#aW"/><use transform="matrix(0.05,0,0,0.05,10.950000000000001,0)" xlink:href="#av"/><use transform="matrix(0.05,0,0,0.05,20.950000000000003,0)" xlink:href="#aL"/><use transform="matrix(0.05,0,0,0.05,25.950000000000003,0)" xlink:href="#ay"/><use transform="matrix(0.05,0,0,0.05,34.95,0)" xlink:href="#aX"/><use transform="matrix(0.05,0,0,0.05,44.95,0)" xlink:href="#aR"/><use transform="matrix(0.05,0,0,0.05,54.95,0)" xlink:href="#aI"/><use transform="matrix(0.05,0,0,0.05,67.9,0)" xlink:href="#aJ"/><use transform="matrix(0.05,0,0,0.05,77.9,0)" xlink:href="#aK"/><use transform="matrix(0.05,0,0,0.05,81.85000000000001,0)" xlink:href="#aK"/><use transform="matrix(0.05,0,0,0.05,85.80000000000001,0)" xlink:href="#av"/><use transform="matrix(0.05,0,0,0.05,95.80000000000001,0)" xlink:href="#ay"/><use transform="matrix(0.05,0,0,0.05,104.80000000000001,0)" xlink:href="#aL"/><use transform="matrix(0.05,0,0,0.05,109.80000000000001,0)" xlink:href="#ax"/><use transform="matrix(0.05,0,0,0.05,113.75,0)" xlink:href="#aJ"/><use transform="matrix(0.05,0,0,0.05,123.75,0)" xlink:href="#aB"/><use transform="matrix(0.05,0,0,0.05,133.75,0)" xlink:href="#aY"/><use transform="matrix(0.05,0,0,0.05,139.7,0)" xlink:href="#aZ"/></g><g id="p"><use transform="matrix(0.05,0,0,0.05,0,0)" xlink:href="#aV"/><use transform="matrix(0.05,0,0,0.05,12,0)" xlink:href="#aO"/><use transform="matrix(0.05,0,0,0.05,22,0)" xlink:href="#aO"/><use transform="matrix(0.05,0,0,0.05,32,0)" xlink:href="#aY"/><use transform="matrix(0.05,0,0,0.05,37.95,0)" xlink:href="#aZ"/></g><g id="q"><use transform="matrix(0.05,0,0,0.05,0,0)" xlink:href="#aM"/><use transform="matrix(0.05,0,0,0.05,5,0)" xlink:href="#aB"/><use transform="matrix(0.05,0,0,0.05,15,0)" xlink:href="#ax"/><use transform="matrix(0.05,0,0,0.05,18.95,0)" xlink:href="#aL"/><use transform="matrix(0.05,0,0,0.05,23.95,0)" xlink:href="#aY"/><use transform="matrix(0.05,0,0,0.05,29.899999999999995,0)" xlink:href="#aZ"/></g><g id="r"><use transform="matrix(0.05,0,0,0.05,0,0)" xlink:href="#aQ"/><use transform="matrix(0.05,0,0,0.05,12.950000000000001,0)" xlink:href="#aF"/><use transform="matrix(0.05,0,0,0.05,21.950000000000003,0)" xlink:href="#av"/><use transform="matrix(0.05,0,0,0.05,31.950000000000003,0)" xlink:href="#aD"/></g><g id="s"><use transform="matrix(0.05,0,0,0.05,0,0)" xlink:href="#aQ"/><use transform="matrix(0.05,0,0,0.05,12.950000000000001,0)" xlink:href="#aF"/><use transform="matrix(0.05,0,0,0.05,21.950000000000003,0)" xlink:href="#av"/><use transform="matrix(0.05,0,0,0.05,31.950000000000003,0)" xlink:href="#aD"/><use transform="matrix(0.05,0,0,0.05,37.900000000000006,0)" xlink:href="#aF"/><use transform="matrix(0.05,0,0,0.05,46.900000000000006,0)" xlink:href="#aG"/></g><path d="M30 0v-248h187v28H63v79h144v27H63v87h162V0H30" id="ba"/><path d="M179-190L93 31C79 59 56 82 12 73V49c39 6 53-20 64-50L1-190h34L92-34l54-156h33" id="bb"/><g id="t"><use transform="matrix(0.05,0,0,0.05,0,0)" xlink:href="#ba"/><use transform="matrix(0.05,0,0,0.05,12,0)" xlink:href="#aw"/><use transform="matrix(0.05,0,0,0.05,21,0)" xlink:href="#av"/><use transform="matrix(0.05,0,0,0.05,31,0)" xlink:href="#aD"/><use transform="matrix(0.05,0,0,0.05,36.95,0)" xlink:href="#bb"/><use transform="matrix(0.05,0,0,0.05,45.95,0)" xlink:href="#aJ"/><use transform="matrix(0.05,0,0,0.05,55.95,0)" xlink:href="#aB"/><use transform="matrix(0.05,0,0,0.05,65.95,0)" xlink:href="#av"/><use transform="matrix(0.05,0,0,0.05,75.95,0)" xlink:href="#aG"/></g><path d="M26 75v-336h71v23H56V52h41v23H26" id="bc"/><path d="M3 75V52h41v-290H3v-23h71V75H3" id="bd"/><g id="u"><use transform="matrix(0.05,0,0,0.05,0,0)" xlink:href="#aQ"/><use transform="matrix(0.05,0,0,0.05,12.950000000000001,0)" xlink:href="#aF"/><use transform="matrix(0.05,0,0,0.05,21.950000000000003,0)" xlink:href="#av"/><use transform="matrix(0.05,0,0,0.05,31.950000000000003,0)" xlink:href="#aD"/><use transform="matrix(0.05,0,0,0.05,37.900000000000006,0)" xlink:href="#bc"/><use transform="matrix(0.05,0,0,0.05,42.900000000000006,0)" xlink:href="#bd"/></g><g id="v"><use transform="matrix(0.05,0,0,0.05,0,0)" xlink:href="#aW"/><use transform="matrix(0.05,0,0,0.05,10.950000000000001,0)" xlink:href="#av"/><use transform="matrix(0.05,0,0,0.05,20.950000000000003,0)" xlink:href="#aL"/><use transform="matrix(0.05,0,0,0.05,25.950000000000003,0)" xlink:href="#ay"/><use transform="matrix(0.05,0,0,0.05,34.95,0)" xlink:href="#aX"/><use transform="matrix(0.05,0,0,0.05,44.95,0)" xlink:href="#aY"/><use transform="matrix(0.05,0,0,0.05,50.900000000000006,0)" xlink:href="#aZ"/></g><g id="w"><use transform="matrix(0.05,0,0,0.05,0,0)" xlink:href="#aT"/><use transform="matrix(0.05,0,0,0.05,8.950000000000001,0)" xlink:href="#aA"/><use transform="matrix(0.05,0,0,0.05,18.950000000000003,0)" xlink:href="#aF"/><use transform="matrix(0.05,0,0,0.05,27.950000000000003,0)" xlink:href="#aU"/></g><g id="x"><use transform="matrix(0.05,0,0,0.05,0,0)" xlink:href="#aI"/><use transform="matrix(0.05,0,0,0.05,12.950000000000001,0)" xlink:href="#aD"/><use transform="matrix(0.05,0,0,0.05,18.900000000000002,0)" xlink:href="#av"/><use transform="matrix(0.05,0,0,0.05,28.900000000000002,0)" xlink:href="#aA"/><use transform="matrix(0.05,0,0,0.05,38.900000000000006,0)" xlink:href="#aL"/><use transform="matrix(0.05,0,0,0.05,43.900000000000006,0)" xlink:href="#aJ"/><use transform="matrix(0.05,0,0,0.05,53.900000000000006,0)" xlink:href="#aD"/><use transform="matrix(0.05,0,0,0.05,59.85,0)" xlink:href="#aG"/></g><g id="y"><use transform="matrix(0.05,0,0,0.05,0,0)" xlink:href="#aV"/><use transform="matrix(0.05,0,0,0.05,12,0)" xlink:href="#aO"/><use transform="matrix(0.05,0,0,0.05,22,0)" xlink:href="#aO"/><use transform="matrix(0.05,0,0,0.05,32,0)" xlink:href="#aD"/><use transform="matrix(0.05,0,0,0.05,37.95,0)" xlink:href="#av"/><use transform="matrix(0.05,0,0,0.05,47.95,0)" xlink:href="#aF"/><use transform="matrix(0.05,0,0,0.05,56.95,0)" xlink:href="#aF"/></g><g id="z"><use transform="matrix(0.05,0,0,0.05,0,0)" xlink:href="#au"/><use transform="matrix(0.05,0,0,0.05,12.950000000000001,0)" xlink:href="#av"/><use transform="matrix(0.05,0,0,0.05,22.950000000000003,0)" xlink:href="#aK"/><use transform="matrix(0.05,0,0,0.05,26.900000000000002,0)" xlink:href="#ax"/><use transform="matrix(0.05,0,0,0.05,30.85,0)" xlink:href="#aw"/><use transform="matrix(0.05,0,0,0.05,39.85,0)" xlink:href="#av"/><use transform="matrix(0.05,0,0,0.05,49.85,0)" xlink:href="#aD"/><use transform="matrix(0.05,0,0,0.05,55.800000000000004,0)" xlink:href="#av"/><use transform="matrix(0.05,0,0,0.05,65.80000000000001,0)" xlink:href="#aD"/><use transform="matrix(0.05,0,0,0.05,71.75000000000001,0)" xlink:href="#aG"/></g><g id="A"><use transform="matrix(0.05,0,0,0.05,0,0)" xlink:href="#au"/><use transform="matrix(0.05,0,0,0.05,12.950000000000001,0)" xlink:href="#av"/><use transform="matrix(0.05,0,0,0.05,22.950000000000003,0)" xlink:href="#aw"/><use transform="matrix(0.05,0,0,0.05,31.950000000000003,0)" xlink:href="#ax"/><use transform="matrix(0.05,0,0,0.05,35.900000000000006,0)" xlink:href="#ay"/><use transform="matrix(0.05,0,0,0.05,44.900000000000006,0)" xlink:href="#av"/><use transform="matrix(0.05,0,0,0.05,54.900000000000006,0)" xlink:href="#aG"/></g><path d="M30 0v-248h33v221h125V0H30" id="be"/><g id="B"><use transform="matrix(0.05,0,0,0.05,0,0)" xlink:href="#be"/><use transform="matrix(0.05,0,0,0.05,10,0)" xlink:href="#aJ"/><use transform="matrix(0.05,0,0,0.05,20,0)" xlink:href="#ay"/><use transform="matrix(0.05,0,0,0.05,29,0)" xlink:href="#aU"/><use transform="matrix(0.05,0,0,0.05,38,0)" xlink:href="#av"/><use transform="matrix(0.05,0,0,0.05,48,0)" xlink:href="#aO"/><use transform="matrix(0.05,0,0,0.05,58,0)" xlink:href="#aG"/></g><path d="M233-177c-1 41-23 64-60 70L243 0h-38l-65-103H63V0H30v-248c88 3 205-21 203 71zM63-129c60-2 137 13 137-47 0-61-80-42-137-45v92" id="bf"/><path d="M84 4C-5 8 30-112 23-190h32v120c0 31 7 50 39 49 72-2 45-101 50-169h31l1 190h-30c-1-10 1-25-2-33-11 22-28 36-60 37" id="bg"/><g id="C"><use transform="matrix(0.05,0,0,0.05,0,0)" xlink:href="#bf"/><use transform="matrix(0.05,0,0,0.05,12.950000000000001,0)" xlink:href="#av"/><use transform="matrix(0.05,0,0,0.05,22.950000000000003,0)" xlink:href="#aH"/><use transform="matrix(0.05,0,0,0.05,32.95,0)" xlink:href="#bg"/><use transform="matrix(0.05,0,0,0.05,42.95,0)" xlink:href="#aL"/><use transform="matrix(0.05,0,0,0.05,47.95,0)" xlink:href="#aA"/><use transform="matrix(0.05,0,0,0.05,57.95,0)" xlink:href="#aL"/><use transform="matrix(0.05,0,0,0.05,62.95,0)" xlink:href="#ax"/><use transform="matrix(0.05,0,0,0.05,66.9,0)" xlink:href="#aJ"/><use transform="matrix(0.05,0,0,0.05,76.9,0)" xlink:href="#aB"/><use transform="matrix(0.05,0,0,0.05,86.9,0)" xlink:href="#aG"/></g><g id="D"><use transform="matrix(0.05,0,0,0.05,0,0)" xlink:href="#aM"/><use transform="matrix(0.05,0,0,0.05,5,0)" xlink:href="#aB"/><use transform="matrix(0.05,0,0,0.05,15,0)" xlink:href="#aL"/><use transform="matrix(0.05,0,0,0.05,20,0)" xlink:href="#av"/><use transform="matrix(0.05,0,0,0.05,30,0)" xlink:href="#aC"/><use transform="matrix(0.05,0,0,0.05,40,0)" xlink:href="#av"/><use transform="matrix(0.05,0,0,0.05,50,0)" xlink:href="#aD"/></g><path d="M206 0h-36l-40-164L89 0H53L-1-190h32L70-26l43-164h34l41 164 42-164h31" id="bh"/><g id="E"><use transform="matrix(0.05,0,0,0.05,0,0)" xlink:href="#bf"/><use transform="matrix(0.05,0,0,0.05,12.950000000000001,0)" xlink:href="#av"/><use transform="matrix(0.05,0,0,0.05,22.950000000000003,0)" xlink:href="#bh"/><use transform="matrix(0.05,0,0,0.05,35.900000000000006,0)" xlink:href="#aA"/><use transform="matrix(0.05,0,0,0.05,45.900000000000006,0)" xlink:href="#aD"/><use transform="matrix(0.05,0,0,0.05,51.85,0)" xlink:href="#aO"/><use transform="matrix(0.05,0,0,0.05,61.85,0)" xlink:href="#aG"/></g><path d="M194 0L95-120 63-95V0H30v-248h33v124l119-124h40L117-140 236 0h-42" id="bi"/><g id="F"><use transform="matrix(0.05,0,0,0.05,0,0)" xlink:href="#ba"/><use transform="matrix(0.05,0,0,0.05,12,0)" xlink:href="#aB"/><use transform="matrix(0.05,0,0,0.05,22,0)" xlink:href="#ay"/><use transform="matrix(0.05,0,0,0.05,31,0)" xlink:href="#aD"/><use transform="matrix(0.05,0,0,0.05,36.95,0)" xlink:href="#bb"/><use transform="matrix(0.05,0,0,0.05,45.95,0)" xlink:href="#aH"/><use transform="matrix(0.05,0,0,0.05,55.95,0)" xlink:href="#aL"/><use transform="matrix(0.05,0,0,0.05,60.95,0)" xlink:href="#ax"/><use transform="matrix(0.05,0,0,0.05,64.9,0)" xlink:href="#aJ"/><use transform="matrix(0.05,0,0,0.05,74.9,0)" xlink:href="#aB"/><use transform="matrix(0.05,0,0,0.05,84.9,0)" xlink:href="#aR"/><use transform="matrix(0.05,0,0,0.05,94.9,0)" xlink:href="#bi"/><use transform="matrix(0.05,0,0,0.05,106.9,0)" xlink:href="#av"/><use transform="matrix(0.05,0,0,0.05,116.9,0)" xlink:href="#bb"/><use transform="matrix(0.05,0,0,0.05,125.9,0)" xlink:href="#aG"/></g><path d="M185-189c-5-48-123-54-124 2 14 75 158 14 163 119 3 78-121 87-175 55-17-10-28-26-33-46l33-7c5 56 141 63 141-1 0-78-155-14-162-118-5-82 145-84 179-34 5 7 8 16 11 25" id="bj"/><g id="G"><use transform="matrix(0.05,0,0,0.05,0,0)" xlink:href="#bj"/><use transform="matrix(0.05,0,0,0.05,12,0)" xlink:href="#aL"/><use transform="matrix(0.05,0,0,0.05,17,0)" xlink:href="#aD"/><use transform="matrix(0.05,0,0,0.05,22.95,0)" xlink:href="#ax"/><use transform="matrix(0.05,0,0,0.05,26.899999999999995,0)" xlink:href="#aB"/><use transform="matrix(0.05,0,0,0.05,36.9,0)" xlink:href="#aC"/></g><path d="M141 0L90-78 38 0H4l68-98-65-92h35l48 74 47-74h35l-64 92 68 98h-35" id="bk"/><g id="H"><use transform="matrix(0.05,0,0,0.05,0,0)" xlink:href="#ba"/><use transform="matrix(0.05,0,0,0.05,12,0)" xlink:href="#bk"/><use transform="matrix(0.05,0,0,0.05,21,0)" xlink:href="#aH"/><use transform="matrix(0.05,0,0,0.05,31,0)" xlink:href="#ax"/><use transform="matrix(0.05,0,0,0.05,34.95,0)" xlink:href="#aD"/><use transform="matrix(0.05,0,0,0.05,40.900000000000006,0)" xlink:href="#av"/><use transform="matrix(0.05,0,0,0.05,50.900000000000006,0)" xlink:href="#aF"/><use transform="matrix(0.05,0,0,0.05,59.900000000000006,0)" xlink:href="#aG"/></g><g id="I"><use transform="matrix(0.05,0,0,0.05,0,0)" xlink:href="#aM"/><use transform="matrix(0.05,0,0,0.05,5,0)" xlink:href="#aB"/><use transform="matrix(0.05,0,0,0.05,15,0)" xlink:href="#aL"/><use transform="matrix(0.05,0,0,0.05,20,0)" xlink:href="#av"/><use transform="matrix(0.05,0,0,0.05,30,0)" xlink:href="#aC"/><use transform="matrix(0.05,0,0,0.05,40,0)" xlink:href="#av"/><use transform="matrix(0.05,0,0,0.05,50,0)" xlink:href="#aD"/></g><g id="J"><use transform="matrix(0.05,0,0,0.05,0,0)" xlink:href="#aV"/><use transform="matrix(0.05,0,0,0.05,12,0)" xlink:href="#aF"/><use transform="matrix(0.05,0,0,0.05,21,0)" xlink:href="#aF"/><use transform="matrix(0.05,0,0,0.05,30,0)" xlink:href="#ax"/><use transform="matrix(0.05,0,0,0.05,33.95,0)" xlink:href="#aC"/><use transform="matrix(0.05,0,0,0.05,43.95,0)" xlink:href="#aB"/><use transform="matrix(0.05,0,0,0.05,53.95,0)" xlink:href="#aY"/><use transform="matrix(0.05,0,0,0.05,59.900000000000006,0)" xlink:href="#aZ"/></g><g id="K"><use transform="matrix(0.05,0,0,0.05,0,0)" xlink:href="#au"/><use transform="matrix(0.05,0,0,0.05,12.950000000000001,0)" xlink:href="#av"/><use transform="matrix(0.05,0,0,0.05,22.950000000000003,0)" xlink:href="#aF"/><use transform="matrix(0.05,0,0,0.05,31.950000000000003,0)" xlink:href="#aL"/><use transform="matrix(0.05,0,0,0.05,36.95,0)" xlink:href="#aD"/><use transform="matrix(0.05,0,0,0.05,42.900000000000006,0)" xlink:href="#aJ"/><use transform="matrix(0.05,0,0,0.05,52.900000000000006,0)" xlink:href="#bb"/><use transform="matrix(0.05,0,0,0.05,61.900000000000006,0)" xlink:href="#aY"/><use transform="matrix(0.05,0,0,0.05,67.85000000000001,0)" xlink:href="#aZ"/></g><g id="L"><use transform="matrix(0.05,0,0,0.05,0,0)" xlink:href="#au"/><use transform="matrix(0.05,0,0,0.05,12.950000000000001,0)" xlink:href="#av"/><use transform="matrix(0.05,0,0,0.05,22.950000000000003,0)" xlink:href="#aw"/><use transform="matrix(0.05,0,0,0.05,31.950000000000003,0)" xlink:href="#ax"/><use transform="matrix(0.05,0,0,0.05,35.900000000000006,0)" xlink:href="#ay"/><use transform="matrix(0.05,0,0,0.05,44.900000000000006,0)" xlink:href="#av"/></g><path d="M140-251c81 0 123 46 123 126C263-46 219 4 140 4 59 4 17-45 17-125s42-126 123-126zm0 227c63 0 89-41 89-101s-29-99-89-99c-61 0-89 39-89 99S79-25 140-24" id="bl"/><g id="M"><use transform="matrix(0.05,0,0,0.05,0,0)" xlink:href="#bl"/><use transform="matrix(0.05,0,0,0.05,14,0)" xlink:href="#bh"/><use transform="matrix(0.05,0,0,0.05,26.950000000000003,0)" xlink:href="#aB"/><use transform="matrix(0.05,0,0,0.05,36.95,0)" xlink:href="#av"/><use transform="matrix(0.05,0,0,0.05,46.95,0)" xlink:href="#aD"/><use transform="matrix(0.05,0,0,0.05,52.900000000000006,0)" xlink:href="#aG"/></g><path d="M190 0L58-211 59 0H30v-248h39L202-35l-2-213h31V0h-41" id="bm"/><path d="M210-169c-67 3-38 105-44 169h-31v-121c0-29-5-50-35-48C34-165 62-65 56 0H25l-1-190h30c1 10-1 24 2 32 10-44 99-50 107 0 11-21 27-35 58-36 85-2 47 119 55 194h-31v-121c0-29-5-49-35-48" id="bn"/><g id="N"><use transform="matrix(0.05,0,0,0.05,0,0)" xlink:href="#bm"/><use transform="matrix(0.05,0,0,0.05,12.950000000000001,0)" xlink:href="#aA"/><use transform="matrix(0.05,0,0,0.05,22.950000000000003,0)" xlink:href="#bn"/><use transform="matrix(0.05,0,0,0.05,37.900000000000006,0)" xlink:href="#av"/><use transform="matrix(0.05,0,0,0.05,47.900000000000006,0)" xlink:href="#aG"/></g><g id="O"><use transform="matrix(0.05,0,0,0.05,0,0)" xlink:href="#aP"/><use transform="matrix(0.05,0,0,0.05,12,0)" xlink:href="#aA"/><use transform="matrix(0.05,0,0,0.05,22,0)" xlink:href="#ay"/><use transform="matrix(0.05,0,0,0.05,31,0)" xlink:href="#aU"/><use transform="matrix(0.05,0,0,0.05,40,0)" xlink:href="#aK"/><use transform="matrix(0.05,0,0,0.05,43.95,0)" xlink:href="#aJ"/><use transform="matrix(0.05,0,0,0.05,53.95,0)" xlink:href="#aC"/><use transform="matrix(0.05,0,0,0.05,63.95,0)" xlink:href="#aG"/></g><g id="P"><use transform="matrix(0.05,0,0,0.05,0,0)" xlink:href="#aT"/><use transform="matrix(0.05,0,0,0.05,8.950000000000001,0)" xlink:href="#aA"/><use transform="matrix(0.05,0,0,0.05,18.950000000000003,0)" xlink:href="#aF"/><use transform="matrix(0.05,0,0,0.05,27.950000000000003,0)" xlink:href="#aU"/><use transform="matrix(0.05,0,0,0.05,36.95,0)" xlink:href="#bc"/><use transform="matrix(0.05,0,0,0.05,41.95,0)" xlink:href="#bd"/></g><g id="Q"><use transform="matrix(0.05,0,0,0.05,0,0)" xlink:href="#aV"/><use transform="matrix(0.05,0,0,0.05,12,0)" xlink:href="#aF"/><use transform="matrix(0.05,0,0,0.05,21,0)" xlink:href="#aF"/><use transform="matrix(0.05,0,0,0.05,30,0)" xlink:href="#ax"/><use transform="matrix(0.05,0,0,0.05,33.95,0)" xlink:href="#aC"/><use transform="matrix(0.05,0,0,0.05,43.95,0)" xlink:href="#aB"/><use transform="matrix(0.05,0,0,0.05,53.95,0)" xlink:href="#bn"/><use transform="matrix(0.05,0,0,0.05,68.9,0)" xlink:href="#av"/><use transform="matrix(0.05,0,0,0.05,78.9,0)" xlink:href="#aB"/><use transform="matrix(0.05,0,0,0.05,88.9,0)" xlink:href="#aL"/><use transform="matrix(0.05,0,0,0.05,93.9,0)" xlink:href="#aG"/></g><g id="R"><use transform="matrix(0.05,0,0,0.05,0,0)" xlink:href="#ba"/><use transform="matrix(0.05,0,0,0.05,12,0)" xlink:href="#aw"/><use transform="matrix(0.05,0,0,0.05,21,0)" xlink:href="#av"/><use transform="matrix(0.05,0,0,0.05,31,0)" xlink:href="#aB"/><use transform="matrix(0.05,0,0,0.05,41,0)" xlink:href="#aL"/></g><g id="S"><use transform="matrix(0.05,0,0,0.05,0,0)" xlink:href="#aV"/><use transform="matrix(0.05,0,0,0.05,12,0)" xlink:href="#aF"/><use transform="matrix(0.05,0,0,0.05,21,0)" xlink:href="#aF"/><use transform="matrix(0.05,0,0,0.05,30,0)" xlink:href="#ax"/><use transform="matrix(0.05,0,0,0.05,33.95,0)" xlink:href="#aC"/><use transform="matrix(0.05,0,0,0.05,43.95,0)" xlink:href="#aB"/><use transform="matrix(0.05,0,0,0.05,53.95,0)" xlink:href="#aR"/><use transform="matrix(0.05,0,0,0.05,63.95,0)" xlink:href="#aT"/><use transform="matrix(0.05,0,0,0.05,72.9,0)" xlink:href="#aA"/><use transform="matrix(0.05,0,0,0.05,82.9,0)" xlink:href="#aF"/><use transform="matrix(0.05,0,0,0.05,91.9,0)" xlink:href="#aU"/><use transform="matrix(0.05,0,0,0.05,100.9,0)" xlink:href="#aY"/><use transform="matrix(0.05,0,0,0.05,106.85000000000001,0)" xlink:href="#aZ"/></g><g id="T"><use transform="matrix(0.05,0,0,0.05,0,0)" xlink:href="#aI"/><use transform="matrix(0.05,0,0,0.05,12.950000000000001,0)" xlink:href="#aK"/><use transform="matrix(0.05,0,0,0.05,16.900000000000002,0)" xlink:href="#av"/><use transform="matrix(0.05,0,0,0.05,26.900000000000002,0)" xlink:href="#aA"/><use transform="matrix(0.05,0,0,0.05,36.900000000000006,0)" xlink:href="#aD"/><use transform="matrix(0.05,0,0,0.05,42.85000000000001,0)" xlink:href="#aR"/><use transform="matrix(0.05,0,0,0.05,52.85,0)" xlink:href="#aT"/><use transform="matrix(0.05,0,0,0.05,61.80000000000001,0)" xlink:href="#aA"/><use transform="matrix(0.05,0,0,0.05,71.80000000000001,0)" xlink:href="#aF"/><use transform="matrix(0.05,0,0,0.05,80.80000000000001,0)" xlink:href="#aU"/><use transform="matrix(0.05,0,0,0.05,89.80000000000001,0)" xlink:href="#aY"/><use transform="matrix(0.05,0,0,0.05,95.75000000000001,0)" xlink:href="#aZ"/></g><g id="U"><use transform="matrix(0.05,0,0,0.05,0,0)" xlink:href="#aT"/><use transform="matrix(0.05,0,0,0.05,8.950000000000001,0)" xlink:href="#aJ"/><use transform="matrix(0.05,0,0,0.05,18.950000000000003,0)" xlink:href="#aU"/><use transform="matrix(0.05,0,0,0.05,27.950000000000003,0)" xlink:href="#av"/><use transform="matrix(0.05,0,0,0.05,37.95,0)" xlink:href="#aB"/><use transform="matrix(0.05,0,0,0.05,47.95,0)" xlink:href="#az"/><use transform="matrix(0.05,0,0,0.05,62.900000000000006,0)" xlink:href="#aA"/><use transform="matrix(0.05,0,0,0.05,72.9,0)" xlink:href="#aB"/><use transform="matrix(0.05,0,0,0.05,82.9,0)" xlink:href="#aA"/><use transform="matrix(0.05,0,0,0.05,92.9,0)" xlink:href="#aC"/><use transform="matrix(0.05,0,0,0.05,102.9,0)" xlink:href="#av"/><use transform="matrix(0.05,0,0,0.05,112.9,0)" xlink:href="#aD"/></g><g id="V"><use transform="matrix(0.05,0,0,0.05,0,0)" xlink:href="#aT"/><use transform="matrix(0.05,0,0,0.05,8.950000000000001,0)" xlink:href="#aJ"/><use transform="matrix(0.05,0,0,0.05,18.950000000000003,0)" xlink:href="#aU"/><use transform="matrix(0.05,0,0,0.05,27.950000000000003,0)" xlink:href="#av"/><use transform="matrix(0.05,0,0,0.05,37.95,0)" xlink:href="#aB"/><use transform="matrix(0.05,0,0,0.05,47.95,0)" xlink:href="#aF"/><use transform="matrix(0.05,0,0,0.05,56.95,0)" xlink:href="#aG"/></g><path d="M30-248c87 1 191-15 191 75 0 78-77 80-158 76V0H30v-248zm33 125c57 0 124 11 124-50 0-59-68-47-124-48v98" id="bo"/><g id="W"><use transform="matrix(0.05,0,0,0.05,0,0)" xlink:href="#bo"/><use transform="matrix(0.05,0,0,0.05,12,0)" xlink:href="#aD"/><use transform="matrix(0.05,0,0,0.05,17.95,0)" xlink:href="#ax"/><use transform="matrix(0.05,0,0,0.05,21.9,0)" xlink:href="#ay"/><use transform="matrix(0.05,0,0,0.05,30.899999999999995,0)" xlink:href="#av"/><use transform="matrix(0.05,0,0,0.05,40.9,0)" xlink:href="#aG"/></g><g id="X"><use transform="matrix(0.05,0,0,0.05,0,0)" xlink:href="#aW"/><use transform="matrix(0.05,0,0,0.05,10.950000000000001,0)" xlink:href="#aK"/><use transform="matrix(0.05,0,0,0.05,14.9,0)" xlink:href="#aJ"/><use transform="matrix(0.05,0,0,0.05,24.900000000000002,0)" xlink:href="#aA"/><use transform="matrix(0.05,0,0,0.05,34.900000000000006,0)" xlink:href="#aL"/></g><g id="Y"><use transform="matrix(0.05,0,0,0.05,0,0)" xlink:href="#aP"/><use transform="matrix(0.05,0,0,0.05,12,0)" xlink:href="#aA"/><use transform="matrix(0.05,0,0,0.05,22,0)" xlink:href="#aK"/><use transform="matrix(0.05,0,0,0.05,25.950000000000003,0)" xlink:href="#aA"/><use transform="matrix(0.05,0,0,0.05,35.95,0)" xlink:href="#aB"/><use transform="matrix(0.05,0,0,0.05,45.95,0)" xlink:href="#ay"/><use transform="matrix(0.05,0,0,0.05,54.95,0)" xlink:href="#av"/><use transform="matrix(0.05,0,0,0.05,64.95,0)" xlink:href="#aY"/><use transform="matrix(0.05,0,0,0.05,70.9,0)" xlink:href="#aZ"/></g><g id="Z"><use transform="matrix(0.05,0,0,0.05,0,0)" xlink:href="#bo"/><use transform="matrix(0.05,0,0,0.05,12,0)" xlink:href="#bg"/><use transform="matrix(0.05,0,0,0.05,22,0)" xlink:href="#aD"/><use transform="matrix(0.05,0,0,0.05,27.950000000000003,0)" xlink:href="#ay"/><use transform="matrix(0.05,0,0,0.05,36.95,0)" xlink:href="#aX"/><use transform="matrix(0.05,0,0,0.05,46.95,0)" xlink:href="#aA"/><use transform="matrix(0.05,0,0,0.05,56.95,0)" xlink:href="#aF"/><use transform="matrix(0.05,0,0,0.05,65.95,0)" xlink:href="#av"/><use transform="matrix(0.05,0,0,0.05,75.95,0)" xlink:href="#aY"/><use transform="matrix(0.05,0,0,0.05,81.9,0)" xlink:href="#aZ"/></g><g id="aa"><use transform="matrix(0.05,0,0,0.05,0,0)" xlink:href="#aI"/><use transform="matrix(0.05,0,0,0.05,12.950000000000001,0)" xlink:href="#aJ"/><use transform="matrix(0.05,0,0,0.05,22.950000000000003,0)" xlink:href="#aB"/><use transform="matrix(0.05,0,0,0.05,32.95,0)" xlink:href="#aF"/><use transform="matrix(0.05,0,0,0.05,41.95,0)" xlink:href="#bg"/><use transform="matrix(0.05,0,0,0.05,51.95,0)" xlink:href="#bn"/><use transform="matrix(0.05,0,0,0.05,66.9,0)" xlink:href="#av"/><use transform="matrix(0.05,0,0,0.05,76.9,0)" xlink:href="#aY"/><use transform="matrix(0.05,0,0,0.05,82.85000000000001,0)" xlink:href="#aZ"/></g><g id="ab"><use transform="matrix(0.05,0,0,0.05,0,0)" xlink:href="#aT"/><use transform="matrix(0.05,0,0,0.05,10.3,0)" xlink:href="#aD"/><use transform="matrix(0.05,0,0,0.05,16.25,0)" xlink:href="#aA"/><use transform="matrix(0.05,0,0,0.05,26.25,0)" xlink:href="#aB"/><use transform="matrix(0.05,0,0,0.05,36.25,0)" xlink:href="#aF"/><use transform="matrix(0.05,0,0,0.05,45.25,0)" xlink:href="#aS"/><use transform="matrix(0.05,0,0,0.05,50.25,0)" xlink:href="#av"/><use transform="matrix(0.05,0,0,0.05,60.25,0)" xlink:href="#aD"/><use transform="matrix(0.05,0,0,0.05,66.2,0)" xlink:href="#aY"/><use transform="matrix(0.05,0,0,0.05,72.15,0)" xlink:href="#aZ"/></g><g id="ac"><use transform="matrix(0.05,0,0,0.05,0,0)" xlink:href="#aQ"/><use transform="matrix(0.05,0,0,0.05,12.950000000000001,0)" xlink:href="#aF"/><use transform="matrix(0.05,0,0,0.05,21.950000000000003,0)" xlink:href="#av"/><use transform="matrix(0.05,0,0,0.05,31.950000000000003,0)" xlink:href="#aD"/></g><g id="ad"><use transform="matrix(0.05,0,0,0.05,0,0)" xlink:href="#bf"/><use transform="matrix(0.05,0,0,0.05,12.950000000000001,0)" xlink:href="#av"/><use transform="matrix(0.05,0,0,0.05,22.950000000000003,0)" xlink:href="#aF"/><use transform="matrix(0.05,0,0,0.05,31.950000000000003,0)" xlink:href="#bg"/><use transform="matrix(0.05,0,0,0.05,41.95,0)" xlink:href="#aK"/><use transform="matrix(0.05,0,0,0.05,45.900000000000006,0)" xlink:href="#aL"/><use transform="matrix(0.05,0,0,0.05,50.900000000000006,0)" xlink:href="#aF"/><use transform="matrix(0.05,0,0,0.05,59.900000000000006,0)" xlink:href="#aG"/></g><g id="ae"><use transform="matrix(0.05,0,0,0.05,0,0)" xlink:href="#aV"/><use transform="matrix(0.05,0,0,0.05,12,0)" xlink:href="#aO"/><use transform="matrix(0.05,0,0,0.05,22,0)" xlink:href="#aO"/><use transform="matrix(0.05,0,0,0.05,32,0)" xlink:href="#aR"/><use transform="matrix(0.05,0,0,0.05,42,0)" xlink:href="#bf"/><use transform="matrix(0.05,0,0,0.05,54.95,0)" xlink:href="#av"/><use transform="matrix(0.05,0,0,0.05,64.95,0)" xlink:href="#aF"/><use transform="matrix(0.05,0,0,0.05,73.95,0)" xlink:href="#bg"/><use transform="matrix(0.05,0,0,0.05,83.95,0)" xlink:href="#aK"/><use transform="matrix(0.05,0,0,0.05,87.9,0)" xlink:href="#aL"/><use transform="matrix(0.05,0,0,0.05,92.9,0)" xlink:href="#aY"/><use transform="matrix(0.05,0,0,0.05,98.85000000000001,0)" xlink:href="#aZ"/></g><g id="af"><use transform="matrix(0.05,0,0,0.05,0,0)" xlink:href="#aV"/><use transform="matrix(0.05,0,0,0.05,11.65,0)" xlink:href="#bh"/><use transform="matrix(0.05,0,0,0.05,24.6,0)" xlink:href="#aA"/><use transform="matrix(0.05,0,0,0.05,34.6,0)" xlink:href="#aD"/><use transform="matrix(0.05,0,0,0.05,40.550000000000004,0)" xlink:href="#aO"/><use transform="matrix(0.05,0,0,0.05,50.550000000000004,0)" xlink:href="#aY"/><use transform="matrix(0.05,0,0,0.05,56.5,0)" xlink:href="#aZ"/></g><g id="ag"><use transform="matrix(0.05,0,0,0.05,0,0)" xlink:href="#aT"/><use transform="matrix(0.05,0,0,0.05,8.950000000000001,0)" xlink:href="#aA"/><use transform="matrix(0.05,0,0,0.05,18.950000000000003,0)" xlink:href="#aF"/><use transform="matrix(0.05,0,0,0.05,27.950000000000003,0)" xlink:href="#aU"/></g><g id="ah"><use transform="matrix(0.05,0,0,0.05,0,0)" xlink:href="#aT"/><use transform="matrix(0.05,0,0,0.05,8.950000000000001,0)" xlink:href="#aA"/><use transform="matrix(0.05,0,0,0.05,18.950000000000003,0)" xlink:href="#aF"/><use transform="matrix(0.05,0,0,0.05,27.950000000000003,0)" xlink:href="#aU"/><use transform="matrix(0.05,0,0,0.05,36.95,0)" xlink:href="#aF"/><use transform="matrix(0.05,0,0,0.05,45.95,0)" xlink:href="#aG"/></g><g id="ai"><use transform="matrix(0.05,0,0,0.05,0,0)" xlink:href="#bl"/><use transform="matrix(0.05,0,0,0.05,14,0)" xlink:href="#aH"/><use transform="matrix(0.05,0,0,0.05,24,0)" xlink:href="#av"/><use transform="matrix(0.05,0,0,0.05,34,0)" xlink:href="#aB"/><use transform="matrix(0.05,0,0,0.05,44,0)" xlink:href="#aG"/></g><g id="aj"><use transform="matrix(0.05,0,0,0.05,0,0)" xlink:href="#bf"/><use transform="matrix(0.05,0,0,0.05,12.950000000000001,0)" xlink:href="#av"/><use transform="matrix(0.05,0,0,0.05,22.950000000000003,0)" xlink:href="#aF"/><use transform="matrix(0.05,0,0,0.05,31.950000000000003,0)" xlink:href="#bg"/><use transform="matrix(0.05,0,0,0.05,41.95,0)" xlink:href="#aK"/><use transform="matrix(0.05,0,0,0.05,45.900000000000006,0)" xlink:href="#aL"/><use transform="matrix(0.05,0,0,0.05,50.900000000000006,0)" xlink:href="#aG"/></g><g id="ak"><use transform="matrix(0.05,0,0,0.05,0,0)" xlink:href="#bj"/><use transform="matrix(0.05,0,0,0.05,12,0)" xlink:href="#aL"/><use transform="matrix(0.05,0,0,0.05,17,0)" xlink:href="#aD"/><use transform="matrix(0.05,0,0,0.05,22.95,0)" xlink:href="#bg"/><use transform="matrix(0.05,0,0,0.05,32.95,0)" xlink:href="#ay"/><use transform="matrix(0.05,0,0,0.05,41.95,0)" xlink:href="#aL"/></g><g id="al"><use transform="matrix(0.05,0,0,0.05,0,0)" xlink:href="#aW"/><use transform="matrix(0.05,0,0,0.05,10.950000000000001,0)" xlink:href="#av"/><use transform="matrix(0.05,0,0,0.05,20.950000000000003,0)" xlink:href="#av"/><use transform="matrix(0.05,0,0,0.05,30.950000000000003,0)" xlink:href="#aG"/></g><g id="am"><use transform="matrix(0.05,0,0,0.05,0,0)" xlink:href="#au"/><use transform="matrix(0.05,0,0,0.05,12.950000000000001,0)" xlink:href="#av"/><use transform="matrix(0.05,0,0,0.05,22.950000000000003,0)" xlink:href="#aw"/><use transform="matrix(0.05,0,0,0.05,31.950000000000003,0)" xlink:href="#ax"/><use transform="matrix(0.05,0,0,0.05,35.900000000000006,0)" xlink:href="#ay"/><use transform="matrix(0.05,0,0,0.05,44.900000000000006,0)" xlink:href="#av"/><use transform="matrix(0.05,0,0,0.05,54.900000000000006,0)" xlink:href="#aR"/><use transform="matrix(0.05,0,0,0.05,64.9,0)" xlink:href="#az"/><use transform="matrix(0.05,0,0,0.05,79.85000000000001,0)" xlink:href="#aA"/><use transform="matrix(0.05,0,0,0.05,89.85000000000001,0)" xlink:href="#aB"/><use transform="matrix(0.05,0,0,0.05,99.85000000000001,0)" xlink:href="#aA"/><use transform="matrix(0.05,0,0,0.05,109.85000000000001,0)" xlink:href="#aC"/><use transform="matrix(0.05,0,0,0.05,119.85000000000001,0)" xlink:href="#av"/><use transform="matrix(0.05,0,0,0.05,129.85000000000002,0)" xlink:href="#aD"/><use transform="matrix(0.05,0,0,0.05,135.8,0)" xlink:href="#aG"/></g><g id="an"><use transform="matrix(0.05,0,0,0.05,0,0)" xlink:href="#aT"/><use transform="matrix(0.05,0,0,0.05,8.950000000000001,0)" xlink:href="#aJ"/><use transform="matrix(0.05,0,0,0.05,18.950000000000003,0)" xlink:href="#aU"/><use transform="matrix(0.05,0,0,0.05,27.950000000000003,0)" xlink:href="#av"/><use transform="matrix(0.05,0,0,0.05,37.95,0)" xlink:href="#aB"/><use transform="matrix(0.05,0,0,0.05,47.95,0)" xlink:href="#aR"/><use transform="matrix(0.05,0,0,0.05,57.95,0)" xlink:href="#az"/><use transform="matrix(0.05,0,0,0.05,72.9,0)" xlink:href="#aA"/><use transform="matrix(0.05,0,0,0.05,82.9,0)" xlink:href="#aB"/><use transform="matrix(0.05,0,0,0.05,92.9,0)" xlink:href="#aA"/><use transform="matrix(0.05,0,0,0.05,102.9,0)" xlink:href="#aC"/><use transform="matrix(0.05,0,0,0.05,112.9,0)" xlink:href="#av"/><use transform="matrix(0.05,0,0,0.05,122.9,0)" xlink:href="#aD"/><use transform="matrix(0.05,0,0,0.05,128.85,0)" xlink:href="#aG"/></g><g id="ao"><use transform="matrix(0.05,0,0,0.05,0,0)" xlink:href="#aM"/><use transform="matrix(0.05,0,0,0.05,5,0)" xlink:href="#aB"/><use transform="matrix(0.05,0,0,0.05,15,0)" xlink:href="#aL"/><use transform="matrix(0.05,0,0,0.05,20,0)" xlink:href="#av"/><use transform="matrix(0.05,0,0,0.05,30,0)" xlink:href="#aD"/><use transform="matrix(0.05,0,0,0.05,35.95,0)" xlink:href="#aS"/><use transform="matrix(0.05,0,0,0.05,40.95,0)" xlink:href="#aA"/><use transform="matrix(0.05,0,0,0.05,50.95,0)" xlink:href="#ay"/><use transform="matrix(0.05,0,0,0.05,59.95,0)" xlink:href="#av"/></g><g id="ap"><use transform="matrix(0.05,0,0,0.05,0,0)" xlink:href="#aW"/><use transform="matrix(0.05,0,0,0.05,10.950000000000001,0)" xlink:href="#av"/><use transform="matrix(0.05,0,0,0.05,20.950000000000003,0)" xlink:href="#aL"/><use transform="matrix(0.05,0,0,0.05,25.950000000000003,0)" xlink:href="#ay"/><use transform="matrix(0.05,0,0,0.05,34.95,0)" xlink:href="#aX"/><use transform="matrix(0.05,0,0,0.05,44.95,0)" xlink:href="#aR"/><use transform="matrix(0.05,0,0,0.05,54.95,0)" xlink:href="#aT"/><use transform="matrix(0.05,0,0,0.05,63.900000000000006,0)" xlink:href="#aA"/><use transform="matrix(0.05,0,0,0.05,73.9,0)" xlink:href="#aF"/><use transform="matrix(0.05,0,0,0.05,82.9,0)" xlink:href="#aU"/><use transform="matrix(0.05,0,0,0.05,91.9,0)" xlink:href="#aY"/><use transform="matrix(0.05,0,0,0.05,97.85000000000001,0)" xlink:href="#aZ"/></g><g id="aq"><use transform="matrix(0.05,0,0,0.05,0,0)" xlink:href="#aW"/><use transform="matrix(0.05,0,0,0.05,10.950000000000001,0)" xlink:href="#av"/><use transform="matrix(0.05,0,0,0.05,20.950000000000003,0)" xlink:href="#aL"/><use transform="matrix(0.05,0,0,0.05,25.950000000000003,0)" xlink:href="#ay"/><use transform="matrix(0.05,0,0,0.05,34.95,0)" xlink:href="#aX"/><use transform="matrix(0.05,0,0,0.05,44.95,0)" xlink:href="#aR"/><use transform="matrix(0.05,0,0,0.05,54.95,0)" xlink:href="#bf"/><use transform="matrix(0.05,0,0,0.05,67.9,0)" xlink:href="#av"/><use transform="matrix(0.05,0,0,0.05,77.9,0)" xlink:href="#aF"/><use transform="matrix(0.05,0,0,0.05,86.9,0)" xlink:href="#bg"/><use transform="matrix(0.05,0,0,0.05,96.9,0)" xlink:href="#aK"/><use transform="matrix(0.05,0,0,0.05,100.85000000000001,0)" xlink:href="#aL"/><use transform="matrix(0.05,0,0,0.05,105.85000000000001,0)" xlink:href="#aY"/><use transform="matrix(0.05,0,0,0.05,111.80000000000001,0)" xlink:href="#aZ"/></g><g id="ar"><use transform="matrix(0.05,0,0,0.05,0,0)" xlink:href="#aV"/><use transform="matrix(0.05,0,0,0.05,12,0)" xlink:href="#ay"/><use transform="matrix(0.05,0,0,0.05,21,0)" xlink:href="#ay"/><use transform="matrix(0.05,0,0,0.05,30,0)" xlink:href="#av"/><use transform="matrix(0.05,0,0,0.05,40,0)" xlink:href="#aH"/><use transform="matrix(0.05,0,0,0.05,50,0)" xlink:href="#aL"/><use transform="matrix(0.05,0,0,0.05,55,0)" xlink:href="#aY"/><use transform="matrix(0.05,0,0,0.05,60.95,0)" xlink:href="#aZ"/></g><g id="as"><use transform="matrix(0.05,0,0,0.05,0,0)" xlink:href="#aI"/><use transform="matrix(0.05,0,0,0.05,12.950000000000001,0)" xlink:href="#aJ"/><use transform="matrix(0.05,0,0,0.05,22.950000000000003,0)" xlink:href="#bn"/><use transform="matrix(0.05,0,0,0.05,37.900000000000006,0)" xlink:href="#aH"/><use transform="matrix(0.05,0,0,0.05,47.900000000000006,0)" xlink:href="#aK"/><use transform="matrix(0.05,0,0,0.05,51.85,0)" xlink:href="#av"/><use transform="matrix(0.05,0,0,0.05,61.85,0)" xlink:href="#aL"/><use transform="matrix(0.05,0,0,0.05,66.85000000000001,0)" xlink:href="#av"/><use transform="matrix(0.05,0,0,0.05,76.85000000000001,0)" xlink:href="#aY"/><use transform="matrix(0.05,0,0,0.05,82.80000000000001,0)" xlink:href="#aZ"/></g><g id="at"><use transform="matrix(0.05,0,0,0.05,0,0)" xlink:href="#bf"/><use transform="matrix(0.05,0,0,0.05,12.950000000000001,0)" xlink:href="#av"/><use transform="matrix(0.05,0,0,0.05,22.950000000000003,0)" xlink:href="#aK"/><use transform="matrix(0.05,0,0,0.05,26.900000000000002,0)" xlink:href="#av"/><use transform="matrix(0.05,0,0,0.05,36.900000000000006,0)" xlink:href="#aA"/><use transform="matrix(0.05,0,0,0.05,46.900000000000006,0)" xlink:href="#aF"/><use transform="matrix(0.05,0,0,0.05,55.900000000000006,0)" xlink:href="#av"/><use transform="matrix(0.05,0,0,0.05,65.9,0)" xlink:href="#aY"/><use transform="matrix(0.05,0,0,0.05,71.85000000000001,0)" xlink:href="#aZ"/></g></defs></g></svg>