<svg xmlns="http://www.w3.org/2000/svg" xmlns:xlink="http://www.w3.org/1999/xlink" xmlns:lucid="lucid" width="1075" height="391"><g transform="translate(-279 -126)" lucid:page-tab-id="0_0"><path d="M0 0h1500v500H0z" fill="#fff"/><path d="M500 140h120v90H500z" stroke="#000" stroke-width="2" fill="#e5e5e5"/><use xlink:href="#a" transform="matrix(1,0,0,1,500,140) translate(41.529999999999994 36.9)"/><use xlink:href="#b" transform="matrix(1,0,0,1,500,140) translate(24.554999999999993 58.5)"/><path d="M359.75 149.75c0 5.38-4.37 9.75-9.75 9.75s-9.75-4.37-9.75-9.75S344.62 140 350 140s9.75 4.37 9.75 9.75z" stroke="#000" stroke-width="2" fill="#e5e5e5"/><path d="M350 159.5v27.3l30 31.2m-30-31.2L320 218m0-48.75h60" stroke="#000" stroke-width="2" fill="none"/><path d="M320 140h60v100h-60z" fill="none"/><use xlink:href="#c" transform="matrix(1,0,0,1,240,218) translate(50.65 14.6)"/><use xlink:href="#d" transform="matrix(1,0,0,1,240,218) translate(97.6 14.6)"/><path d="M740 140h120v90H740z" stroke="#000" stroke-width="2" fill="#e5e5e5"/><use xlink:href="#e" transform="matrix(1,0,0,1,740,140) translate(41.055 36.9)"/><use xlink:href="#b" transform="matrix(1,0,0,1,740,140) translate(24.554999999999993 58.5)"/><path d="M980 140h120v90H980z" stroke="#000" stroke-width="2" fill="#e5e5e5"/><use xlink:href="#f" transform="matrix(1,0,0,1,980,140.00099999999975) translate(36.03 36.9)"/><use xlink:href="#b" transform="matrix(1,0,0,1,980,140.00099999999975) translate(24.554999999999993 58.5)"/><path d="M560 232v3.9m0 7.8v7.8m0 7.8v7.8m0 7.78v7.8m0 7.8v7.8m0 7.8v7.8m0 7.78v7.8m0 7.8v7.8m0 7.8v7.8m0 7.78v7.8m0 7.8v7.8m0 7.8v7.8m0 7.8V423m0 7.8v7.8m0 7.8v7.8m0 7.8v7.78m0 7.8v3.9" stroke="#000" stroke-width="2" fill="none"/><path d="M561 232.03h-2V231h2z"/><path d="M560 496.76l-4.64-14.26h9.28z" stroke="#000" stroke-width="2"/><path d="M800 232v3.9m0 7.8v7.8m0 7.8v7.8m0 7.78v7.8m0 7.8v7.8m0 7.8v7.8m0 7.78v7.8m0 7.8v7.8m0 7.8v7.8m0 7.78v7.8m0 7.8v7.8m0 7.8v7.8m0 7.8V423m0 7.8v7.8m0 7.8v7.8m0 7.8v7.78m0 7.8v3.9" stroke="#000" stroke-width="2" fill="none"/><path d="M801 232.03h-2V231h2z"/><path d="M800 496.76l-4.64-14.26h9.28z" stroke="#000" stroke-width="2"/><path d="M1040 232v3.9m0 7.8v7.8m0 7.8v7.8m0 7.78v7.8m0 7.8v7.8m0 7.8v7.8m0 7.78v7.8m0 7.8v7.8m0 7.8v7.8m0 7.78v7.8m0 7.8v7.8m0 7.8v7.8m0 7.8V423m0 7.8v7.8m0 7.8v7.8m0 7.8v7.78m0 7.8v3.9" stroke="#000" stroke-width="2" fill="none"/><path d="M1041 232.03h-2V231h2z"/><path d="M1040 496.76l-4.64-14.26h9.28z" stroke="#000" stroke-width="2"/><path d="M350 241v4m0 8.02v8.02m0 8.02v8m0 8.03v8m0 8.02v8.02m0 8.02v8m0 8.03v8m0 8.02v8.02m0 8.02v8m0 8.03v8m0 8.02v8.02m0 8.02v8m0 8.03v8m0 8.02v8.02m0 8.02v8m0 8.03v4" stroke="#000" stroke-width="2" fill="none"/><path d="M351 241.03h-2V237h2z"/><path d="M350 496.76l-4.64-14.26h9.28z" stroke="#000" stroke-width="2"/><path d="M1220 140h120v90h-120z" stroke="#000" stroke-width="2" fill="#e5e5e5"/><use xlink:href="#g" transform="matrix(1,0,0,1,1220,140.00099999999975) translate(41.529999999999994 36.9)"/><use xlink:href="#h" transform="matrix(1,0,0,1,1220,140.00099999999975) translate(26.054999999999993 58.5)"/><path d="M1280 232v3.9m0 7.8v7.8m0 7.8v7.8m0 7.78v7.8m0 7.8v7.8m0 7.8v7.8m0 7.78v7.8m0 7.8v7.8m0 7.8v7.8m0 7.78v7.8m0 7.8v7.8m0 7.8v7.8m0 7.8V423m0 7.8v7.8m0 7.8v7.8m0 7.8v7.78m0 7.8v3.9" stroke="#000" stroke-width="2" fill="none"/><path d="M1281 232.03h-2V231h2z"/><path d="M1280 496.76l-4.64-14.26h9.28z" stroke="#000" stroke-width="2"/><path d="M351 265.78h190.5M351.03 265.78H350" stroke="#000" stroke-width="2" fill="none"/><path d="M556.76 265.78l-14.26 4.63v-9.26z" stroke="#000" stroke-width="2"/><use xlink:href="#i" transform="matrix(1,0,0,1,433.05,240.17777777777783) translate(0 14.4)"/><path d="M559 458.67h-3m-4.02 0h-6m-4.02 0h-6.02m-4 0h-6.03m-4 0h-6m-4.02 0h-6.02m-4 0h-6.03m-4 0h-6.02m-4 0h-6.02m-4 0h-6.02m-4 0h-6.03m-4 0h-6.03m-4 0h-6.02m-4 0h-6.03m-4 0h-6.02m-4.02 0h-6m-4 0h-6.03m-4 0h-6.02m-4 0h-6.03m-4 0h-3.02M558.97 458.67H560" stroke="#000" stroke-width="2" fill="none"/><path d="M353.24 458.67l14.26-4.64v9.27z" stroke="#000" stroke-width="2"/><use xlink:href="#j" transform="matrix(1,0,0,1,385.575,433.0666666666667) translate(0 14.4)"/><use xlink:href="#k" transform="matrix(1,0,0,1,385.575,433.0666666666667) translate(72.9 14.4)"/><path d="M561 281.3h220.5M561.03 281.3H560" stroke="#000" stroke-width="2" fill="none"/><path d="M796.76 281.3l-14.26 4.64v-9.27z" stroke="#000" stroke-width="2"/><use xlink:href="#c" transform="matrix(1,0,0,1,628.55,255.70081300813007) translate(0 14.4)"/><use xlink:href="#l" transform="matrix(1,0,0,1,628.55,255.70081300813007) translate(46.95 14.4)"/><path d="M561 318.67h460.5M561.03 318.67H560" stroke="#000" stroke-width="2" fill="none"/><path d="M1036.76 318.67l-14.26 4.63v-9.27z" stroke="#000" stroke-width="2"/><use xlink:href="#m" transform="matrix(1,0,0,1,857.6666666666666,293.06666666666666) translate(0 14.4)"/><use xlink:href="#n" transform="matrix(1,0,0,1,857.6666666666666,293.06666666666666) translate(67 14.4)"/><path d="M561 357.33h700.5M561.03 357.33H560" stroke="#000" stroke-width="2" fill="none"/><path d="M1276.76 357.33l-14.26 4.64v-9.27z" stroke="#000" stroke-width="2"/><use xlink:href="#o" transform="matrix(1,0,0,1,1078.8530303030304,331.7333333333333) translate(0 14.4)"/><use xlink:href="#p" transform="matrix(1,0,0,1,1078.8530303030304,331.7333333333333) translate(87.95 14.4)"/><use xlink:href="#q" transform="matrix(1,0,0,1,1078.8530303030304,331.7333333333333) translate(125.9 14.4)"/><path d="M561 400h460.5M561.03 400H560" stroke="#000" stroke-width="2" fill="none"/><path d="M1036.76 400l-14.26 4.64v-9.28z" stroke="#000" stroke-width="2"/><g><use xlink:href="#r" transform="matrix(1,0,0,1,855.2166666666667,374.4) translate(0 14.4)"/><use xlink:href="#s" transform="matrix(1,0,0,1,855.2166666666667,374.4) translate(81.9 14.4)"/></g><path d="M561 438.67h460.5M561.03 438.67H560" stroke="#000" stroke-width="2" fill="none"/><path d="M1036.76 438.67l-14.26 4.63v-9.27z" stroke="#000" stroke-width="2"/><g><use xlink:href="#t" transform="matrix(1,0,0,1,859.2333333333332,413.0666666666666) translate(0 14.4)"/><use xlink:href="#s" transform="matrix(1,0,0,1,859.2333333333332,413.0666666666666) translate(71.2 14.4)"/></g><defs><path d="M127-220V0H93v-220H8v-28h204v28h-85" id="u"/><path d="M141-36C126-15 110 5 73 4 37 3 15-17 15-53c-1-64 63-63 125-63 3-35-9-54-41-54-24 1-41 7-42 31l-33-3c5-37 33-52 76-52 45 0 72 20 72 64v82c-1 20 7 32 28 27v20c-31 9-61-2-59-35zM48-53c0 20 12 33 32 33 41-3 63-29 60-74-43 2-92-5-92 41" id="v"/><path d="M135-143c-3-34-86-38-87 0 15 53 115 12 119 90S17 21 10-45l28-5c4 36 97 45 98 0-10-56-113-15-118-90-4-57 82-63 122-42 12 7 21 19 24 35" id="w"/><path d="M143 0L79-87 56-68V0H24v-261h32v163l83-92h37l-77 82L181 0h-38" id="x"/><g id="a"><use transform="matrix(0.05,0,0,0.05,0,0)" xlink:href="#u"/><use transform="matrix(0.05,0,0,0.05,8.950000000000001,0)" xlink:href="#v"/><use transform="matrix(0.05,0,0,0.05,18.950000000000003,0)" xlink:href="#w"/><use transform="matrix(0.05,0,0,0.05,27.950000000000003,0)" xlink:href="#x"/></g><path d="M240 0l2-218c-23 76-54 145-80 218h-23L58-218 59 0H30v-248h44l77 211c21-75 51-140 76-211h43V0h-30" id="y"/><path d="M117-194c89-4 53 116 60 194h-32v-121c0-31-8-49-39-48C34-167 62-67 57 0H25l-1-190h30c1 10-1 24 2 32 11-22 29-35 61-36" id="z"/><path d="M177-190C167-65 218 103 67 71c-23-6-38-20-44-43l32-5c15 47 100 32 89-28v-30C133-14 115 1 83 1 29 1 15-40 15-95c0-56 16-97 71-98 29-1 48 16 59 35 1-10 0-23 2-32h30zM94-22c36 0 50-32 50-73 0-42-14-75-50-75-39 0-46 34-46 75s6 73 46 73" id="A"/><path d="M100-194c63 0 86 42 84 106H49c0 40 14 67 53 68 26 1 43-12 49-29l28 8c-11 28-37 45-77 45C44 4 14-33 15-96c1-61 26-98 85-98zm52 81c6-60-76-77-97-28-3 7-6 17-6 28h103" id="B"/><path d="M114-163C36-179 61-72 57 0H25l-1-190h30c1 12-1 29 2 39 6-27 23-49 58-41v29" id="C"/><g id="b"><use transform="matrix(0.05,0,0,0.05,0,0)" xlink:href="#y"/><use transform="matrix(0.05,0,0,0.05,14.950000000000001,0)" xlink:href="#v"/><use transform="matrix(0.05,0,0,0.05,24.950000000000003,0)" xlink:href="#z"/><use transform="matrix(0.05,0,0,0.05,34.95,0)" xlink:href="#v"/><use transform="matrix(0.05,0,0,0.05,44.95,0)" xlink:href="#A"/><use transform="matrix(0.05,0,0,0.05,54.95,0)" xlink:href="#B"/><use transform="matrix(0.05,0,0,0.05,64.95,0)" xlink:href="#C"/></g><path d="M205 0l-28-72H64L36 0H1l101-248h38L239 0h-34zm-38-99l-47-123c-12 45-31 82-46 123h93" id="D"/><path d="M96-169c-40 0-48 33-48 73s9 75 48 75c24 0 41-14 43-38l32 2c-6 37-31 61-74 61-59 0-76-41-82-99-10-93 101-131 147-64 4 7 5 14 7 22l-32 3c-4-21-16-35-41-35" id="E"/><path d="M59-47c-2 24 18 29 38 22v24C64 9 27 4 27-40v-127H5v-23h24l9-43h21v43h35v23H59v120" id="F"/><path d="M100-194c62-1 85 37 85 99 1 63-27 99-86 99S16-35 15-95c0-66 28-99 85-99zM99-20c44 1 53-31 53-75 0-43-8-75-51-75s-53 32-53 75 10 74 51 75" id="G"/><g id="c"><use transform="matrix(0.05,0,0,0.05,0,0)" xlink:href="#D"/><use transform="matrix(0.05,0,0,0.05,12,0)" xlink:href="#E"/><use transform="matrix(0.05,0,0,0.05,21,0)" xlink:href="#F"/><use transform="matrix(0.05,0,0,0.05,26,0)" xlink:href="#G"/><use transform="matrix(0.05,0,0,0.05,36,0)" xlink:href="#C"/></g><path d="M87 75C49 33 22-17 22-94c0-76 28-126 65-167h31c-38 41-64 92-64 168S80 34 118 75H87" id="H"/><path d="M212-179c-10-28-35-45-73-45-59 0-87 40-87 99 0 60 29 101 89 101 43 0 62-24 78-52l27 14C228-24 195 4 139 4 59 4 22-46 18-125c-6-104 99-153 187-111 19 9 31 26 39 46" id="I"/><path d="M33-261c38 41 65 92 65 168S71 34 33 75H2C39 34 66-17 66-93S39-220 2-261h31" id="J"/><g id="d"><use transform="matrix(0.05,0,0,0.05,0,0)" xlink:href="#H"/><use transform="matrix(0.05,0,0,0.05,5.95,0)" xlink:href="#I"/><use transform="matrix(0.05,0,0,0.05,18.900000000000002,0)" xlink:href="#C"/><use transform="matrix(0.05,0,0,0.05,24.85,0)" xlink:href="#B"/><use transform="matrix(0.05,0,0,0.05,34.85,0)" xlink:href="#v"/><use transform="matrix(0.05,0,0,0.05,44.85,0)" xlink:href="#F"/><use transform="matrix(0.05,0,0,0.05,49.85,0)" xlink:href="#G"/><use transform="matrix(0.05,0,0,0.05,59.85,0)" xlink:href="#C"/><use transform="matrix(0.05,0,0,0.05,65.8,0)" xlink:href="#J"/></g><path d="M232-93c-1 65-40 97-104 97C67 4 28-28 28-90v-158h33c8 89-33 224 67 224 102 0 64-133 71-224h33v155" id="K"/><g id="e"><use transform="matrix(0.05,0,0,0.05,0,0)" xlink:href="#K"/><use transform="matrix(0.05,0,0,0.05,12.950000000000001,0)" xlink:href="#w"/><use transform="matrix(0.05,0,0,0.05,21.950000000000003,0)" xlink:href="#B"/><use transform="matrix(0.05,0,0,0.05,31.950000000000003,0)" xlink:href="#C"/></g><g id="f"><use transform="matrix(0.05,0,0,0.05,0,0)" xlink:href="#u"/><use transform="matrix(0.05,0,0,0.05,8.950000000000001,0)" xlink:href="#G"/><use transform="matrix(0.05,0,0,0.05,18.950000000000003,0)" xlink:href="#x"/><use transform="matrix(0.05,0,0,0.05,27.950000000000003,0)" xlink:href="#B"/><use transform="matrix(0.05,0,0,0.05,37.95,0)" xlink:href="#z"/></g><g id="g"><use transform="matrix(0.05,0,0,0.05,0,0)" xlink:href="#u"/><use transform="matrix(0.05,0,0,0.05,8.950000000000001,0)" xlink:href="#v"/><use transform="matrix(0.05,0,0,0.05,18.950000000000003,0)" xlink:href="#w"/><use transform="matrix(0.05,0,0,0.05,27.950000000000003,0)" xlink:href="#x"/></g><g id="h"><use transform="matrix(0.05,0,0,0.05,0,0)" xlink:href="#I"/><use transform="matrix(0.05,0,0,0.05,12.950000000000001,0)" xlink:href="#G"/><use transform="matrix(0.05,0,0,0.05,22.950000000000003,0)" xlink:href="#z"/><use transform="matrix(0.05,0,0,0.05,32.95,0)" xlink:href="#F"/><use transform="matrix(0.05,0,0,0.05,37.95,0)" xlink:href="#C"/><use transform="matrix(0.05,0,0,0.05,43.900000000000006,0)" xlink:href="#v"/><use transform="matrix(0.05,0,0,0.05,53.900000000000006,0)" xlink:href="#E"/><use transform="matrix(0.05,0,0,0.05,62.900000000000006,0)" xlink:href="#F"/></g><path d="M85-194c31 0 48 13 60 33l-1-100h32l1 261h-30c-2-10 0-23-3-31C134-8 116 4 85 4 32 4 16-35 15-94c0-66 23-100 70-100zm9 24c-40 0-46 34-46 75 0 40 6 74 45 74 42 0 51-32 51-76 0-42-9-74-50-73" id="L"/><g id="i"><use transform="matrix(0.05,0,0,0.05,0,0)" xlink:href="#D"/><use transform="matrix(0.05,0,0,0.05,12,0)" xlink:href="#L"/><use transform="matrix(0.05,0,0,0.05,22,0)" xlink:href="#L"/><use transform="matrix(0.05,0,0,0.05,32,0)" xlink:href="#H"/><use transform="matrix(0.05,0,0,0.05,37.95,0)" xlink:href="#J"/></g><g id="j"><use transform="matrix(0.05,0,0,0.05,0,0)" xlink:href="#I"/><use transform="matrix(0.05,0,0,0.05,12.950000000000001,0)" xlink:href="#G"/><use transform="matrix(0.05,0,0,0.05,22.950000000000003,0)" xlink:href="#z"/><use transform="matrix(0.05,0,0,0.05,32.95,0)" xlink:href="#F"/><use transform="matrix(0.05,0,0,0.05,37.95,0)" xlink:href="#C"/><use transform="matrix(0.05,0,0,0.05,43.900000000000006,0)" xlink:href="#v"/><use transform="matrix(0.05,0,0,0.05,53.900000000000006,0)" xlink:href="#E"/><use transform="matrix(0.05,0,0,0.05,62.900000000000006,0)" xlink:href="#F"/></g><g id="k"><use transform="matrix(0.05,0,0,0.05,0,0)" xlink:href="#D"/><use transform="matrix(0.05,0,0,0.05,12,0)" xlink:href="#L"/><use transform="matrix(0.05,0,0,0.05,22,0)" xlink:href="#L"/><use transform="matrix(0.05,0,0,0.05,32,0)" xlink:href="#C"/><use transform="matrix(0.05,0,0,0.05,37.95,0)" xlink:href="#B"/><use transform="matrix(0.05,0,0,0.05,47.95,0)" xlink:href="#w"/><use transform="matrix(0.05,0,0,0.05,56.95,0)" xlink:href="#w"/></g><path d="M141 0L90-78 38 0H4l68-98-65-92h35l48 74 47-74h35l-64 92 68 98h-35" id="M"/><path d="M24-231v-30h32v30H24zM24 0v-190h32V0H24" id="N"/><path d="M103-251c84 0 111 97 45 133-19 10-37 24-39 52H78c0-63 77-55 77-114 0-30-21-42-52-43-32 0-53 17-56 46l-32-2c7-45 34-72 88-72zM77 0v-35h34V0H77" id="O"/><g id="l"><use transform="matrix(0.05,0,0,0.05,0,0)" xlink:href="#B"/><use transform="matrix(0.05,0,0,0.05,10,0)" xlink:href="#M"/><use transform="matrix(0.05,0,0,0.05,19,0)" xlink:href="#N"/><use transform="matrix(0.05,0,0,0.05,22.95,0)" xlink:href="#w"/><use transform="matrix(0.05,0,0,0.05,31.950000000000003,0)" xlink:href="#F"/><use transform="matrix(0.05,0,0,0.05,36.95,0)" xlink:href="#w"/><use transform="matrix(0.05,0,0,0.05,45.95,0)" xlink:href="#O"/></g><path d="M30 0v-248h187v28H63v79h144v27H63v87h162V0H30" id="P"/><path d="M84 4C-5 8 30-112 23-190h32v120c0 31 7 50 39 49 72-2 45-101 50-169h31l1 190h-30c-1-10 1-25-2-33-11 22-28 36-60 37" id="Q"/><path d="M106-169C34-169 62-67 57 0H25v-261h32l-1 103c12-21 28-36 61-36 89 0 53 116 60 194h-32v-121c2-32-8-49-39-48" id="R"/><g id="m"><use transform="matrix(0.05,0,0,0.05,0,0)" xlink:href="#P"/><use transform="matrix(0.05,0,0,0.05,12,0)" xlink:href="#z"/><use transform="matrix(0.05,0,0,0.05,22,0)" xlink:href="#G"/><use transform="matrix(0.05,0,0,0.05,32,0)" xlink:href="#Q"/><use transform="matrix(0.05,0,0,0.05,42,0)" xlink:href="#A"/><use transform="matrix(0.05,0,0,0.05,52,0)" xlink:href="#R"/></g><g id="n"><use transform="matrix(0.05,0,0,0.05,0,0)" xlink:href="#F"/><use transform="matrix(0.05,0,0,0.05,5,0)" xlink:href="#G"/><use transform="matrix(0.05,0,0,0.05,15,0)" xlink:href="#x"/><use transform="matrix(0.05,0,0,0.05,24,0)" xlink:href="#B"/><use transform="matrix(0.05,0,0,0.05,34,0)" xlink:href="#z"/><use transform="matrix(0.05,0,0,0.05,44,0)" xlink:href="#w"/><use transform="matrix(0.05,0,0,0.05,53,0)" xlink:href="#O"/></g><path d="M33 0v-248h34V0H33" id="S"/><g id="o"><use transform="matrix(0.05,0,0,0.05,0,0)" xlink:href="#S"/><use transform="matrix(0.05,0,0,0.05,5,0)" xlink:href="#z"/><use transform="matrix(0.05,0,0,0.05,15,0)" xlink:href="#w"/><use transform="matrix(0.05,0,0,0.05,24,0)" xlink:href="#F"/><use transform="matrix(0.05,0,0,0.05,29,0)" xlink:href="#v"/><use transform="matrix(0.05,0,0,0.05,39,0)" xlink:href="#z"/><use transform="matrix(0.05,0,0,0.05,49,0)" xlink:href="#F"/><use transform="matrix(0.05,0,0,0.05,54,0)" xlink:href="#N"/><use transform="matrix(0.05,0,0,0.05,57.95,0)" xlink:href="#v"/><use transform="matrix(0.05,0,0,0.05,67.95,0)" xlink:href="#F"/><use transform="matrix(0.05,0,0,0.05,72.95,0)" xlink:href="#B"/></g><path d="M206 0h-36l-40-164L89 0H53L-1-190h32L70-26l43-164h34l41 164 42-164h31" id="T"/><g id="p"><use transform="matrix(0.05,0,0,0.05,0,0)" xlink:href="#z"/><use transform="matrix(0.05,0,0,0.05,10,0)" xlink:href="#B"/><use transform="matrix(0.05,0,0,0.05,20,0)" xlink:href="#T"/></g><g id="q"><use transform="matrix(0.05,0,0,0.05,0,0)" xlink:href="#F"/><use transform="matrix(0.05,0,0,0.05,5,0)" xlink:href="#v"/><use transform="matrix(0.05,0,0,0.05,15,0)" xlink:href="#w"/><use transform="matrix(0.05,0,0,0.05,24,0)" xlink:href="#x"/></g><path d="M210-169c-67 3-38 105-44 169h-31v-121c0-29-5-50-35-48C34-165 62-65 56 0H25l-1-190h30c1 10-1 24 2 32 10-44 99-50 107 0 11-21 27-35 58-36 85-2 47 119 55 194h-31v-121c0-29-5-49-35-48" id="U"/><g id="r"><use transform="matrix(0.05,0,0,0.05,0,0)" xlink:href="#I"/><use transform="matrix(0.05,0,0,0.05,12.950000000000001,0)" xlink:href="#G"/><use transform="matrix(0.05,0,0,0.05,22.950000000000003,0)" xlink:href="#z"/><use transform="matrix(0.05,0,0,0.05,32.95,0)" xlink:href="#w"/><use transform="matrix(0.05,0,0,0.05,41.95,0)" xlink:href="#Q"/><use transform="matrix(0.05,0,0,0.05,51.95,0)" xlink:href="#U"/><use transform="matrix(0.05,0,0,0.05,66.9,0)" xlink:href="#B"/></g><g id="s"><use transform="matrix(0.05,0,0,0.05,0,0)" xlink:href="#F"/><use transform="matrix(0.05,0,0,0.05,5,0)" xlink:href="#G"/><use transform="matrix(0.05,0,0,0.05,15,0)" xlink:href="#x"/><use transform="matrix(0.05,0,0,0.05,24,0)" xlink:href="#B"/><use transform="matrix(0.05,0,0,0.05,34,0)" xlink:href="#z"/><use transform="matrix(0.05,0,0,0.05,44,0)" xlink:href="#w"/></g><path d="M101-234c-31-9-42 10-38 44h38v23H63V0H32v-167H5v-23h27c-7-52 17-82 69-68v24" id="V"/><g id="t"><use transform="matrix(0.05,0,0,0.05,0,0)" xlink:href="#u"/><use transform="matrix(0.05,0,0,0.05,10.3,0)" xlink:href="#C"/><use transform="matrix(0.05,0,0,0.05,16.25,0)" xlink:href="#v"/><use transform="matrix(0.05,0,0,0.05,26.25,0)" xlink:href="#z"/><use transform="matrix(0.05,0,0,0.05,36.25,0)" xlink:href="#w"/><use transform="matrix(0.05,0,0,0.05,45.25,0)" xlink:href="#V"/><use transform="matrix(0.05,0,0,0.05,50.25,0)" xlink:href="#B"/><use transform="matrix(0.05,0,0,0.05,60.25,0)" xlink:href="#C"/></g></defs></g></svg>