<svg xmlns="http://www.w3.org/2000/svg" xmlns:xlink="http://www.w3.org/1999/xlink" xmlns:lucid="lucid" width="1094" height="449"><g transform="translate(-19 -126)" lucid:page-tab-id="0_0"><path d="M0 0h1500v1000H0z" fill="#fff"/><path d="M500 140h120v90H500z" stroke="#000" stroke-width="2" fill="#e5e5e5"/><use xlink:href="#a" transform="matrix(1,0,0,1,500,140) translate(32.555 36.9)"/><use xlink:href="#b" transform="matrix(1,0,0,1,500,140) translate(26.054999999999993 58.5)"/><path d="M740 140h120v90H740z" stroke="#000" stroke-width="2" fill="#e5e5e5"/><use xlink:href="#c" transform="matrix(1,0,0,1,740,140) translate(47.029999999999994 36.9)"/><use xlink:href="#d" transform="matrix(1,0,0,1,740,140) translate(14.12999999999999 58.5)"/><path d="M560 232v4.07m0 8.15v8.14m0 8.15v8.15m0 8.15v8.14m0 8.15v8.13m0 8.14v8.15m0 8.14v8.15m0 8.15v8.15m0 8.14v8.15m0 8.13v8.15m0 8.14v8.15m0 8.14v8.16m0 8.14v8.14m0 8.15v8.13m0 8.15v8.14m0 8.15v8.14m0 8.16v8.14m0 8.15V513m0 8.14v8.14m0 8.15v4.07" stroke="#000" stroke-width="2" fill="none"/><path d="M561 232.03h-2V231h2z"/><path d="M560 556.76l-4.64-14.26h9.28z" stroke="#000" stroke-width="2"/><path d="M800 232v4.07m0 8.15v8.14m0 8.15v8.15m0 8.15v8.14m0 8.15v8.13m0 8.14v8.15m0 8.14v8.15m0 8.15v8.15m0 8.14v8.15m0 8.13v8.15m0 8.14v8.15m0 8.14v8.16m0 8.14v8.14m0 8.15v8.13m0 8.15v8.14m0 8.15v8.14m0 8.16v8.14m0 8.15V513m0 8.14v8.14m0 8.15v4.07" stroke="#000" stroke-width="2" fill="none"/><path d="M801 232.03h-2V231h2z"/><path d="M800 556.76l-4.64-14.26h9.28z" stroke="#000" stroke-width="2"/><path d="M320 232v4.07m0 8.15v8.14m0 8.15v8.15m0 8.15v8.14m0 8.15v8.13m0 8.14v8.15m0 8.14v8.15m0 8.15v8.15m0 8.14v8.15m0 8.13v8.15m0 8.14v8.15m0 8.14v8.16m0 8.14v8.14m0 8.15v8.13m0 8.15v8.14m0 8.15v8.14m0 8.16v8.14m0 8.15V513m0 8.14v8.14m0 8.15v4.07" stroke="#000" stroke-width="2" fill="none"/><path d="M321 232.03h-2V231h2z"/><path d="M320 556.76l-4.64-14.26h9.28z" stroke="#000" stroke-width="2"/><path d="M980 140h120v90H980z" stroke="#000" stroke-width="2" fill="#e5e5e5"/><use xlink:href="#e" transform="matrix(1,0,0,1,980,140.00099999999975) translate(40.029999999999994 36.9)"/><use xlink:href="#f" transform="matrix(1,0,0,1,980,140.00099999999975) translate(32.08 58.5)"/><path d="M1040 232v4.07m0 8.15v8.14m0 8.15v8.15m0 8.15v8.14m0 8.15v8.13m0 8.15v8.14m0 8.14v8.15m0 8.15v8.15m0 8.14v8.15m0 8.13v8.15m0 8.14v8.15m0 8.14v8.16m0 8.14v8.14m0 8.15v8.13m0 8.15v8.14m0 8.15v8.14m0 8.16v8.14m0 8.15V513m0 8.14v8.14m0 8.14v4.08" stroke="#000" stroke-width="2" fill="none"/><path d="M1041 232.03h-2V231h2z"/><path d="M1040 556.76l-4.64-14.26h9.28z" stroke="#000" stroke-width="2"/><path d="M260 140h120v90H260z" stroke="#000" stroke-width="2" fill="#e5e5e5"/><use xlink:href="#g" transform="matrix(1,0,0,1,260,140) translate(41.529999999999994 36.9)"/><use xlink:href="#h" transform="matrix(1,0,0,1,260,140) translate(24.554999999999993 58.5)"/><path d="M799 338.97h-39v40.7h21.5M798.97 338.97H800" stroke="#000" stroke-width="2" fill="none"/><path d="M796.76 379.68l-14.26 4.64v-9.28z" stroke="#000" stroke-width="2"/><use xlink:href="#i" transform="matrix(1,0,0,1,637.15,348.5252425032408) translate(0 14.4)"/><use xlink:href="#j" transform="matrix(1,0,0,1,637.15,348.5252425032408) translate(77.9 14.4)"/><path d="M799 400.3h-39v38.54h21.5M798.97 400.3H800" stroke="#000" stroke-width="2" fill="none"/><path d="M796.76 438.84l-14.26 4.64v-9.27z" stroke="#000" stroke-width="2"/><use xlink:href="#k" transform="matrix(1,0,0,1,691.05,408.77464117070264) translate(0.00999999999999801 14.4)"/><path d="M801 458.93h220.5M801.03 458.93H800" stroke="#000" stroke-width="2" fill="none"/><path d="M1036.76 458.93l-14.26 4.63v-9.27z" stroke="#000" stroke-width="2"/><use xlink:href="#l" transform="matrix(1,0,0,1,863.5999763625383,433.32572813603264) translate(0 14.4)"/><use xlink:href="#m" transform="matrix(1,0,0,1,863.5999763625383,433.32572813603264) translate(61.900000000000006 14.4)"/><path d="M1039 500.18h-3m-4.02 0h-6m-4.02 0h-6m-4.02 0h-6m-4.02 0h-6.02m-4 0h-6.02m-4 0h-6.02m-4 0h-6.02m-4 0h-6.03m-4 0h-6m-4.02 0h-6m-4.02 0h-6.02m-4 0H915.72m-4 0h-6.02m-4 0h-6.02m-4 0h-6.03m-4 0h-6.02m-4 0h-6.02m-4 0h-6m-4.02 0h-6.02m-4 0h-6.02m-4 0h-6.02m-4 0h-3.02M1038.97 500.18h1.03" stroke="#000" stroke-width="2" fill="none"/><path d="M803.24 500.18l14.26-4.64v9.27z" stroke="#000" stroke-width="2"/><use xlink:href="#n" transform="matrix(1,0,0,1,884.525,474.5765664150101) translate(0 14.4)"/><use xlink:href="#o" transform="matrix(1,0,0,1,884.525,474.5765664150101) translate(29 14.4)"/><path d="M321 299.35h220.5M321.03 299.35H320" stroke="#000" stroke-width="2" fill="none"/><path d="M556.76 299.35l-14.26 4.63v-9.27z" stroke="#000" stroke-width="2"/><use xlink:href="#p" transform="matrix(1,0,0,1,383.6,273.74723752347023) translate(0 14.4)"/><path d="M561 319.43h220.5M561.03 319.43H560" stroke="#000" stroke-width="2" fill="none"/><path d="M796.76 319.43l-14.26 4.64v-9.27z" stroke="#000" stroke-width="2"/><use xlink:href="#q" transform="matrix(1,0,0,1,607.55,293.8303704126242) translate(0 14.4)"/><use xlink:href="#r" transform="matrix(1,0,0,1,607.55,293.8303704126242) translate(98.9 14.4)"/><path d="M799 520.26H338.5M798.97 520.26H800" stroke="#000" stroke-width="2" fill="none"/><path d="M323.24 520.26l14.26-4.63v9.27z" stroke="#000" stroke-width="2"/><use xlink:href="#s" transform="matrix(1,0,0,1,369.58939393939386,494.66169930416356) translate(0 14.4)"/><path d="M119.75 149.75c0 5.4-4.37 9.75-9.75 9.75s-9.75-4.36-9.75-9.75c0-5.38 4.37-9.75 9.75-9.75s9.75 4.37 9.75 9.75z" stroke="#000" stroke-width="2" fill="#e5e5e5"/><path d="M110 159.5v27.3l30 31.2m-30-31.2L80 218m0-48.75h60" stroke="#000" stroke-width="2" fill="none"/><path d="M80 140h60v100H80z" fill="none"/><use xlink:href="#t" transform="matrix(1,0,0,1,0,218.00099999999975) translate(32.099999999999994 14.6)"/><use xlink:href="#u" transform="matrix(1,0,0,1,0,218.00099999999975) translate(79.05 14.6)"/><path d="M110 241v3.95m0 7.9v7.92m0 7.9v7.92m0 7.9v7.9m0 7.9v7.92m0 7.9v7.9m0 7.92v7.9m0 7.92v7.9m0 7.9v7.92m0 7.9v7.92m0 7.9v7.9m0 7.92v7.9m0 7.9v7.92m0 7.9v7.92m0 7.9v7.9m0 7.92v7.9m0 7.92v7.9m0 7.9v7.92m0 7.9v7.92m0 7.9v3.96" stroke="#000" stroke-width="2" fill="none"/><path d="M111 241.03h-2V237h2z"/><path d="M110 556.76l-4.64-14.26h9.28z" stroke="#000" stroke-width="2"/><path d="M111 278.72h190.5M111.03 278.72H110" stroke="#000" stroke-width="2" fill="none"/><path d="M316.76 278.72l-14.26 4.64v-9.27z" stroke="#000" stroke-width="2"/><g><use xlink:href="#v" transform="matrix(1,0,0,1,181.55,253.12131725893374) translate(0 14.4)"/></g><defs><path d="M30-248c118-7 216 8 213 122C240-48 200 0 122 0H30v-248zM63-27c89 8 146-16 146-99s-60-101-146-95v194" id="w"/><path d="M100-194c63 0 86 42 84 106H49c0 40 14 67 53 68 26 1 43-12 49-29l28 8c-11 28-37 45-77 45C44 4 14-33 15-96c1-61 26-98 85-98zm52 81c6-60-76-77-97-28-3 7-6 17-6 28h103" id="x"/><path d="M108 0H70L1-190h34L89-25l56-165h34" id="y"/><path d="M24-231v-30h32v30H24zM24 0v-190h32V0H24" id="z"/><path d="M96-169c-40 0-48 33-48 73s9 75 48 75c24 0 41-14 43-38l32 2c-6 37-31 61-74 61-59 0-76-41-82-99-10-93 101-131 147-64 4 7 5 14 7 22l-32 3c-4-21-16-35-41-35" id="A"/><g id="a"><use transform="matrix(0.05,0,0,0.05,0,0)" xlink:href="#w"/><use transform="matrix(0.05,0,0,0.05,12.950000000000001,0)" xlink:href="#x"/><use transform="matrix(0.05,0,0,0.05,22.950000000000003,0)" xlink:href="#y"/><use transform="matrix(0.05,0,0,0.05,31.950000000000003,0)" xlink:href="#z"/><use transform="matrix(0.05,0,0,0.05,35.900000000000006,0)" xlink:href="#A"/><use transform="matrix(0.05,0,0,0.05,44.900000000000006,0)" xlink:href="#x"/></g><path d="M212-179c-10-28-35-45-73-45-59 0-87 40-87 99 0 60 29 101 89 101 43 0 62-24 78-52l27 14C228-24 195 4 139 4 59 4 22-46 18-125c-6-104 99-153 187-111 19 9 31 26 39 46" id="B"/><path d="M100-194c62-1 85 37 85 99 1 63-27 99-86 99S16-35 15-95c0-66 28-99 85-99zM99-20c44 1 53-31 53-75 0-43-8-75-51-75s-53 32-53 75 10 74 51 75" id="C"/><path d="M117-194c89-4 53 116 60 194h-32v-121c0-31-8-49-39-48C34-167 62-67 57 0H25l-1-190h30c1 10-1 24 2 32 11-22 29-35 61-36" id="D"/><path d="M59-47c-2 24 18 29 38 22v24C64 9 27 4 27-40v-127H5v-23h24l9-43h21v43h35v23H59v120" id="E"/><path d="M114-163C36-179 61-72 57 0H25l-1-190h30c1 12-1 29 2 39 6-27 23-49 58-41v29" id="F"/><path d="M141-36C126-15 110 5 73 4 37 3 15-17 15-53c-1-64 63-63 125-63 3-35-9-54-41-54-24 1-41 7-42 31l-33-3c5-37 33-52 76-52 45 0 72 20 72 64v82c-1 20 7 32 28 27v20c-31 9-61-2-59-35zM48-53c0 20 12 33 32 33 41-3 63-29 60-74-43 2-92-5-92 41" id="G"/><g id="b"><use transform="matrix(0.05,0,0,0.05,0,0)" xlink:href="#B"/><use transform="matrix(0.05,0,0,0.05,12.950000000000001,0)" xlink:href="#C"/><use transform="matrix(0.05,0,0,0.05,22.950000000000003,0)" xlink:href="#D"/><use transform="matrix(0.05,0,0,0.05,32.95,0)" xlink:href="#E"/><use transform="matrix(0.05,0,0,0.05,37.95,0)" xlink:href="#F"/><use transform="matrix(0.05,0,0,0.05,43.900000000000006,0)" xlink:href="#G"/><use transform="matrix(0.05,0,0,0.05,53.900000000000006,0)" xlink:href="#A"/><use transform="matrix(0.05,0,0,0.05,62.900000000000006,0)" xlink:href="#E"/></g><path d="M33 0v-248h34V0H33" id="H"/><path d="M127-220V0H93v-220H8v-28h204v28h-85" id="I"/><g id="c"><use transform="matrix(0.05,0,0,0.05,0,0)" xlink:href="#H"/><use transform="matrix(0.05,0,0,0.05,5,0)" xlink:href="#C"/><use transform="matrix(0.05,0,0,0.05,15,0)" xlink:href="#I"/></g><path d="M240 0l2-218c-23 76-54 145-80 218h-23L58-218 59 0H30v-248h44l77 211c21-75 51-140 76-211h43V0h-30" id="J"/><path d="M85-194c31 0 48 13 60 33l-1-100h32l1 261h-30c-2-10 0-23-3-31C134-8 116 4 85 4 32 4 16-35 15-94c0-66 23-100 70-100zm9 24c-40 0-46 34-46 75 0 40 6 74 45 74 42 0 51-32 51-76 0-42-9-74-50-73" id="K"/><path d="M24 0v-261h32V0H24" id="L"/><path d="M206 0h-36l-40-164L89 0H53L-1-190h32L70-26l43-164h34l41 164 42-164h31" id="M"/><g id="d"><use transform="matrix(0.05,0,0,0.05,0,0)" xlink:href="#J"/><use transform="matrix(0.05,0,0,0.05,14.950000000000001,0)" xlink:href="#z"/><use transform="matrix(0.05,0,0,0.05,18.900000000000002,0)" xlink:href="#K"/><use transform="matrix(0.05,0,0,0.05,28.900000000000002,0)" xlink:href="#K"/><use transform="matrix(0.05,0,0,0.05,38.900000000000006,0)" xlink:href="#L"/><use transform="matrix(0.05,0,0,0.05,42.85000000000001,0)" xlink:href="#x"/><use transform="matrix(0.05,0,0,0.05,52.85,0)" xlink:href="#M"/><use transform="matrix(0.05,0,0,0.05,65.80000000000001,0)" xlink:href="#G"/><use transform="matrix(0.05,0,0,0.05,75.80000000000001,0)" xlink:href="#F"/><use transform="matrix(0.05,0,0,0.05,81.75000000000001,0)" xlink:href="#x"/></g><path d="M30-248c87 1 191-15 191 75 0 78-77 80-158 76V0H30v-248zm33 125c57 0 124 11 124-50 0-59-68-47-124-48v98" id="N"/><path d="M63-220v92h138v28H63V0H30v-248h175v28H63" id="O"/><path d="M185-189c-5-48-123-54-124 2 14 75 158 14 163 119 3 78-121 87-175 55-17-10-28-26-33-46l33-7c5 56 141 63 141-1 0-78-155-14-162-118-5-82 145-84 179-34 5 7 8 16 11 25" id="P"/><g id="e"><use transform="matrix(0.05,0,0,0.05,0,0)" xlink:href="#H"/><use transform="matrix(0.05,0,0,0.05,5,0)" xlink:href="#N"/><use transform="matrix(0.05,0,0,0.05,17,0)" xlink:href="#O"/><use transform="matrix(0.05,0,0,0.05,27.950000000000003,0)" xlink:href="#P"/></g><path d="M210-169c-67 3-38 105-44 169h-31v-121c0-29-5-50-35-48C34-165 62-65 56 0H25l-1-190h30c1 10-1 24 2 32 10-44 99-50 107 0 11-21 27-35 58-36 85-2 47 119 55 194h-31v-121c0-29-5-49-35-48" id="Q"/><g id="f"><use transform="matrix(0.05,0,0,0.05,0,0)" xlink:href="#P"/><use transform="matrix(0.05,0,0,0.05,12,0)" xlink:href="#M"/><use transform="matrix(0.05,0,0,0.05,24.950000000000003,0)" xlink:href="#G"/><use transform="matrix(0.05,0,0,0.05,34.95,0)" xlink:href="#F"/><use transform="matrix(0.05,0,0,0.05,40.900000000000006,0)" xlink:href="#Q"/></g><path d="M135-143c-3-34-86-38-87 0 15 53 115 12 119 90S17 21 10-45l28-5c4 36 97 45 98 0-10-56-113-15-118-90-4-57 82-63 122-42 12 7 21 19 24 35" id="R"/><path d="M143 0L79-87 56-68V0H24v-261h32v163l83-92h37l-77 82L181 0h-38" id="S"/><g id="g"><use transform="matrix(0.05,0,0,0.05,0,0)" xlink:href="#I"/><use transform="matrix(0.05,0,0,0.05,8.950000000000001,0)" xlink:href="#G"/><use transform="matrix(0.05,0,0,0.05,18.950000000000003,0)" xlink:href="#R"/><use transform="matrix(0.05,0,0,0.05,27.950000000000003,0)" xlink:href="#S"/></g><path d="M177-190C167-65 218 103 67 71c-23-6-38-20-44-43l32-5c15 47 100 32 89-28v-30C133-14 115 1 83 1 29 1 15-40 15-95c0-56 16-97 71-98 29-1 48 16 59 35 1-10 0-23 2-32h30zM94-22c36 0 50-32 50-73 0-42-14-75-50-75-39 0-46 34-46 75s6 73 46 73" id="T"/><g id="h"><use transform="matrix(0.05,0,0,0.05,0,0)" xlink:href="#J"/><use transform="matrix(0.05,0,0,0.05,14.950000000000001,0)" xlink:href="#G"/><use transform="matrix(0.05,0,0,0.05,24.950000000000003,0)" xlink:href="#D"/><use transform="matrix(0.05,0,0,0.05,34.95,0)" xlink:href="#G"/><use transform="matrix(0.05,0,0,0.05,44.95,0)" xlink:href="#T"/><use transform="matrix(0.05,0,0,0.05,54.95,0)" xlink:href="#x"/><use transform="matrix(0.05,0,0,0.05,64.95,0)" xlink:href="#F"/></g><path d="M115-194c55 1 70 41 70 98S169 2 115 4C84 4 66-9 55-30l1 105H24l-1-265h31l2 30c10-21 28-34 59-34zm-8 174c40 0 45-34 45-75s-6-73-45-74c-42 0-51 32-51 76 0 43 10 73 51 73" id="U"/><path d="M84 4C-5 8 30-112 23-190h32v120c0 31 7 50 39 49 72-2 45-101 50-169h31l1 190h-30c-1-10 1-25-2-33-11 22-28 36-60 37" id="V"/><g id="i"><use transform="matrix(0.05,0,0,0.05,0,0)" xlink:href="#B"/><use transform="matrix(0.05,0,0,0.05,12.950000000000001,0)" xlink:href="#C"/><use transform="matrix(0.05,0,0,0.05,22.950000000000003,0)" xlink:href="#Q"/><use transform="matrix(0.05,0,0,0.05,37.900000000000006,0)" xlink:href="#U"/><use transform="matrix(0.05,0,0,0.05,47.900000000000006,0)" xlink:href="#V"/><use transform="matrix(0.05,0,0,0.05,57.900000000000006,0)" xlink:href="#E"/><use transform="matrix(0.05,0,0,0.05,62.900000000000006,0)" xlink:href="#x"/></g><g id="j"><use transform="matrix(0.05,0,0,0.05,0,0)" xlink:href="#I"/><use transform="matrix(0.05,0,0,0.05,8.950000000000001,0)" xlink:href="#G"/><use transform="matrix(0.05,0,0,0.05,18.950000000000003,0)" xlink:href="#R"/><use transform="matrix(0.05,0,0,0.05,27.950000000000003,0)" xlink:href="#S"/></g><path d="M30 0v-248h187v28H63v79h144v27H63v87h162V0H30" id="W"/><path d="M179-190L93 31C79 59 56 82 12 73V49c39 6 53-20 64-50L1-190h34L92-34l54-156h33" id="X"/><g id="k"><use transform="matrix(0.05,0,0,0.05,0,0)" xlink:href="#W"/><use transform="matrix(0.05,0,0,0.05,12,0)" xlink:href="#D"/><use transform="matrix(0.05,0,0,0.05,22,0)" xlink:href="#A"/><use transform="matrix(0.05,0,0,0.05,31,0)" xlink:href="#F"/><use transform="matrix(0.05,0,0,0.05,36.95,0)" xlink:href="#X"/><use transform="matrix(0.05,0,0,0.05,45.95,0)" xlink:href="#U"/><use transform="matrix(0.05,0,0,0.05,55.95,0)" xlink:href="#E"/></g><path d="M232-93c-1 65-40 97-104 97C67 4 28-28 28-90v-158h33c8 89-33 224 67 224 102 0 64-133 71-224h33v155" id="Y"/><g id="l"><use transform="matrix(0.05,0,0,0.05,0,0)" xlink:href="#Y"/><use transform="matrix(0.05,0,0,0.05,12.950000000000001,0)" xlink:href="#U"/><use transform="matrix(0.05,0,0,0.05,22.950000000000003,0)" xlink:href="#L"/><use transform="matrix(0.05,0,0,0.05,26.900000000000002,0)" xlink:href="#C"/><use transform="matrix(0.05,0,0,0.05,36.900000000000006,0)" xlink:href="#G"/><use transform="matrix(0.05,0,0,0.05,46.900000000000006,0)" xlink:href="#K"/></g><path d="M233-177c-1 41-23 64-60 70L243 0h-38l-65-103H63V0H30v-248c88 3 205-21 203 71zM63-129c60-2 137 13 137-47 0-61-80-42-137-45v92" id="Z"/><g id="m"><use transform="matrix(0.05,0,0,0.05,0,0)" xlink:href="#Z"/><use transform="matrix(0.05,0,0,0.05,12.950000000000001,0)" xlink:href="#x"/><use transform="matrix(0.05,0,0,0.05,22.950000000000003,0)" xlink:href="#R"/><use transform="matrix(0.05,0,0,0.05,31.950000000000003,0)" xlink:href="#V"/><use transform="matrix(0.05,0,0,0.05,41.95,0)" xlink:href="#L"/><use transform="matrix(0.05,0,0,0.05,45.900000000000006,0)" xlink:href="#E"/></g><path d="M140-251c81 0 123 46 123 126C263-53 228-8 163 1c7 30 30 48 69 40v23c-55 16-95-15-103-61C56-3 17-48 17-125c0-80 42-126 123-126zm0 227c63 0 89-41 89-101s-29-99-89-99c-61 0-89 39-89 99S79-25 140-24" id="aa"/><g id="n"><use transform="matrix(0.05,0,0,0.05,0,0)" xlink:href="#aa"/><use transform="matrix(0.05,0,0,0.05,14,0)" xlink:href="#D"/></g><path d="M197 0v-115H63V0H30v-248h33v105h134v-105h34V0h-34" id="ab"/><path d="M106-169C34-169 62-67 57 0H25v-261h32l-1 103c12-21 28-36 61-36 89 0 53 116 60 194h-32v-121c2-32-8-49-39-48" id="ac"/><g id="o"><use transform="matrix(0.05,0,0,0.05,0,0)" xlink:href="#ab"/><use transform="matrix(0.05,0,0,0.05,12.950000000000001,0)" xlink:href="#G"/><use transform="matrix(0.05,0,0,0.05,22.950000000000003,0)" xlink:href="#R"/><use transform="matrix(0.05,0,0,0.05,31.950000000000003,0)" xlink:href="#ac"/></g><path d="M205 0l-28-72H64L36 0H1l101-248h38L239 0h-34zm-38-99l-47-123c-12 45-31 82-46 123h93" id="ad"/><path d="M-5 72V49h209v23H-5" id="ae"/><path d="M87 75C49 33 22-17 22-94c0-76 28-126 65-167h31c-38 41-64 92-64 168S80 34 118 75H87" id="af"/><path d="M33-261c38 41 65 92 65 168S71 34 33 75H2C39 34 66-17 66-93S39-220 2-261h31" id="ag"/><g id="p"><use transform="matrix(0.05,0,0,0.05,0,0)" xlink:href="#ad"/><use transform="matrix(0.05,0,0,0.05,12,0)" xlink:href="#R"/><use transform="matrix(0.05,0,0,0.05,21,0)" xlink:href="#R"/><use transform="matrix(0.05,0,0,0.05,30,0)" xlink:href="#z"/><use transform="matrix(0.05,0,0,0.05,33.95,0)" xlink:href="#T"/><use transform="matrix(0.05,0,0,0.05,43.95,0)" xlink:href="#D"/><use transform="matrix(0.05,0,0,0.05,53.95,0)" xlink:href="#ae"/><use transform="matrix(0.05,0,0,0.05,63.95,0)" xlink:href="#I"/><use transform="matrix(0.05,0,0,0.05,72.9,0)" xlink:href="#G"/><use transform="matrix(0.05,0,0,0.05,82.9,0)" xlink:href="#R"/><use transform="matrix(0.05,0,0,0.05,91.9,0)" xlink:href="#S"/><use transform="matrix(0.05,0,0,0.05,100.9,0)" xlink:href="#af"/><use transform="matrix(0.05,0,0,0.05,106.85000000000001,0)" xlink:href="#ag"/></g><g id="q"><use transform="matrix(0.05,0,0,0.05,0,0)" xlink:href="#ad"/><use transform="matrix(0.05,0,0,0.05,12,0)" xlink:href="#R"/><use transform="matrix(0.05,0,0,0.05,21,0)" xlink:href="#R"/><use transform="matrix(0.05,0,0,0.05,30,0)" xlink:href="#z"/><use transform="matrix(0.05,0,0,0.05,33.95,0)" xlink:href="#T"/><use transform="matrix(0.05,0,0,0.05,43.95,0)" xlink:href="#D"/><use transform="matrix(0.05,0,0,0.05,53.95,0)" xlink:href="#Q"/><use transform="matrix(0.05,0,0,0.05,68.9,0)" xlink:href="#x"/><use transform="matrix(0.05,0,0,0.05,78.9,0)" xlink:href="#D"/><use transform="matrix(0.05,0,0,0.05,88.9,0)" xlink:href="#E"/></g><g id="r"><use transform="matrix(0.05,0,0,0.05,0,0)" xlink:href="#W"/><use transform="matrix(0.05,0,0,0.05,12,0)" xlink:href="#y"/><use transform="matrix(0.05,0,0,0.05,21,0)" xlink:href="#x"/><use transform="matrix(0.05,0,0,0.05,31,0)" xlink:href="#D"/><use transform="matrix(0.05,0,0,0.05,41,0)" xlink:href="#E"/></g><path d="M115-194c53 0 69 39 70 98 0 66-23 100-70 100C84 3 66-7 56-30L54 0H23l1-261h32v101c10-23 28-34 59-34zm-8 174c40 0 45-34 45-75 0-40-5-75-45-74-42 0-51 32-51 76 0 43 10 73 51 73" id="ah"/><g id="s"><use transform="matrix(0.05,0,0,0.05,0,0)" xlink:href="#P"/><use transform="matrix(0.05,0,0,0.05,12,0)" xlink:href="#V"/><use transform="matrix(0.05,0,0,0.05,22,0)" xlink:href="#ah"/><use transform="matrix(0.05,0,0,0.05,32,0)" xlink:href="#Q"/><use transform="matrix(0.05,0,0,0.05,46.95,0)" xlink:href="#z"/><use transform="matrix(0.05,0,0,0.05,50.900000000000006,0)" xlink:href="#E"/><use transform="matrix(0.05,0,0,0.05,55.900000000000006,0)" xlink:href="#ae"/><use transform="matrix(0.05,0,0,0.05,65.9,0)" xlink:href="#Z"/><use transform="matrix(0.05,0,0,0.05,78.85000000000001,0)" xlink:href="#x"/><use transform="matrix(0.05,0,0,0.05,88.85000000000001,0)" xlink:href="#R"/><use transform="matrix(0.05,0,0,0.05,97.85000000000001,0)" xlink:href="#V"/><use transform="matrix(0.05,0,0,0.05,107.85000000000001,0)" xlink:href="#L"/><use transform="matrix(0.05,0,0,0.05,111.80000000000001,0)" xlink:href="#E"/><use transform="matrix(0.05,0,0,0.05,116.80000000000001,0)" xlink:href="#af"/><use transform="matrix(0.05,0,0,0.05,122.75,0)" xlink:href="#ag"/></g><g id="t"><use transform="matrix(0.05,0,0,0.05,0,0)" xlink:href="#ad"/><use transform="matrix(0.05,0,0,0.05,12,0)" xlink:href="#A"/><use transform="matrix(0.05,0,0,0.05,21,0)" xlink:href="#E"/><use transform="matrix(0.05,0,0,0.05,26,0)" xlink:href="#C"/><use transform="matrix(0.05,0,0,0.05,36,0)" xlink:href="#F"/></g><g id="u"><use transform="matrix(0.05,0,0,0.05,0,0)" xlink:href="#af"/><use transform="matrix(0.05,0,0,0.05,5.95,0)" xlink:href="#Z"/><use transform="matrix(0.05,0,0,0.05,18.900000000000002,0)" xlink:href="#x"/><use transform="matrix(0.05,0,0,0.05,28.900000000000002,0)" xlink:href="#R"/><use transform="matrix(0.05,0,0,0.05,37.900000000000006,0)" xlink:href="#U"/><use transform="matrix(0.05,0,0,0.05,47.900000000000006,0)" xlink:href="#C"/><use transform="matrix(0.05,0,0,0.05,57.900000000000006,0)" xlink:href="#D"/><use transform="matrix(0.05,0,0,0.05,67.9,0)" xlink:href="#K"/><use transform="matrix(0.05,0,0,0.05,77.9,0)" xlink:href="#x"/><use transform="matrix(0.05,0,0,0.05,87.9,0)" xlink:href="#D"/><use transform="matrix(0.05,0,0,0.05,97.9,0)" xlink:href="#E"/><use transform="matrix(0.05,0,0,0.05,102.9,0)" xlink:href="#ag"/></g><g id="v"><use transform="matrix(0.05,0,0,0.05,0,0)" xlink:href="#ad"/><use transform="matrix(0.05,0,0,0.05,12,0)" xlink:href="#A"/><use transform="matrix(0.05,0,0,0.05,21,0)" xlink:href="#A"/><use transform="matrix(0.05,0,0,0.05,30,0)" xlink:href="#x"/><use transform="matrix(0.05,0,0,0.05,40,0)" xlink:href="#U"/><use transform="matrix(0.05,0,0,0.05,50,0)" xlink:href="#E"/><use transform="matrix(0.05,0,0,0.05,55,0)" xlink:href="#af"/><use transform="matrix(0.05,0,0,0.05,60.95,0)" xlink:href="#ag"/></g></defs></g></svg>